<svg xmlns="http://www.w3.org/2000/svg" viewBox="0 0 314.05 768"><defs><style>.cls-1{isolation:isolate;}.cls-2,.cls-3{fill:#b3d8e8;}.cls-2{mix-blend-mode:multiply;}.cls-4{fill:#646a8f;}.cls-5{fill:#525878;}.cls-6{fill:#878fb3;}.cls-7{fill:#1c191a;}.cls-8{fill:#ef4136;}.cls-9{fill:#414042;}.cls-10{fill:#a7a9ac;}.cls-11{fill:#2b2a2b;}.cls-12{fill:#434b6b;}.cls-13{fill:#58595b;}.cls-14{fill:#fff;}</style></defs><title>Car_road</title><g class="cls-1"><g id="Layer_2" data-name="Layer 2"><g id="Layer_4" data-name="Layer 4"><rect class="cls-2" width="314.05" height="768"/><rect class="cls-2" x="22.8" width="268.46" height="768"/><rect class="cls-3" x="147.13" width="19.78" height="71.8"/><rect class="cls-3" x="147.13" y="102.84" width="19.78" height="71.37"/><rect class="cls-3" x="147.13" y="205.25" width="19.78" height="71.37"/><rect class="cls-3" x="147.13" y="307.66" width="19.78" height="71.37"/><rect class="cls-3" x="147.13" y="410.07" width="19.78" height="71.37"/><rect class="cls-3" x="147.13" y="512.48" width="19.78" height="71.37"/><rect class="cls-3" x="147.13" y="614.89" width="19.78" height="71.37"/><rect class="cls-3" x="147.13" y="717.3" width="19.78" height="50.7"/><path class="cls-4" d="M84.19,411.57v48.66l7.5,16.17s.67,18.67,11.5,26.83,25.67,15.5,53.83,15.5,43-7.33,53.84-15.5,11.5-26.83,11.5-26.83l7.5-16.17V411.57l-3.17-5.5V251.73l3.17-14.83V192.73l-5.25-8.91s-.09-6.92-2.42-20.42C215.52,129.23,157,133.07,157,133.07s-58.5-3.84-65.16,30.33c-2.34,13.5-2.42,20.42-2.42,20.42l-5.25,8.91V236.9l3.17,14.83V406.07Z"/><path class="cls-5" d="M157,518.73V133.07s-58.5-3.84-65.16,30.33c-2.34,13.5-2.42,20.42-2.42,20.42l-5.25,8.91V236.9l3.17,14.83V406.07l-3.17,5.5v48.66l7.5,16.17s.67,18.67,11.5,26.83S128.86,518.73,157,518.73Z"/><polygon class="cls-6" points="157.03 511.86 188.53 506.54 201.63 408.87 157.03 416.74 157.03 511.86"/><polygon class="cls-4" points="157.03 511.86 125.53 506.54 112.42 408.87 157.03 416.74 157.03 511.86"/><path class="cls-7" d="M218.69,396.07s-20-55.25-15.5-106.5,6.67-67.34,12.83-85.34C217.36,231.23,221.36,381.4,218.69,396.07Z"/><path class="cls-6" d="M157,174.57c41.17,0,48.5,10.33,48.5,10.33l-.58-32.46s2.38-10.12-14-13.5-33.92-3-33.92-3Z"/><path class="cls-8" d="M204.94,152.44s11.46,3.18,15.42,15l1.09-7s-7-14.79-19.17-16h0A9.38,9.38,0,0,1,204.94,152.44Z"/><path class="cls-9" d="M185.86,511.48l2.66-7.5S178,507.9,157,507.9v7.5C167,515.4,183.36,512.48,185.86,511.48Z"/><path class="cls-10" d="M189.77,508.32l1.63-5.05a4.26,4.26,0,0,1,2.5-2.66c5.63-2.19,22.17-9.34,25.17-18.54v6.66S212,501.63,189.77,508.32Z"/><path class="cls-5" d="M189.77,508.32l1.63-5.05a4.24,4.24,0,0,1,.76-1.36v0l8.73-85.27-1.38.55-11,86.81-2.66,7.5Z"/><path class="cls-11" d="M219.06,315.57c-.05-2.69-.1-5.38-.15-8.09l-16.36-4.31c0,1.72,0,3.43,0,5.15Z"/><path class="cls-11" d="M217.08,233.41l-10,16c-.14,1.24-.28,2.5-.42,3.8l10.54-16.3C217.15,235.73,217.11,234.56,217.08,233.41Z"/><path class="cls-6" d="M229.86,460.23V411.57l-3.17-5.5V251.73l3.17-14.83V192.73l-5.25-8.91s-.09-6.92-2.42-20.42a30.17,30.17,0,0,0-.74-3l-1.09,7s5.83,91.63,4.58,135.77.5,149.9-5.87,178.9v6.66l.75.83a52.21,52.21,0,0,0,2.54-13.16Z"/><path class="cls-6" d="M220.93,386.49l9.42-3.76a9.24,9.24,0,0,0,4.09-3.19l1.09-1.5a1.52,1.52,0,0,0-1.65-2.36l-10.82,3.05a3.07,3.07,0,0,0-2.17,2.32l-.2.93-1.21.36a2.13,2.13,0,0,0-1.3,1l0,0A2.21,2.21,0,0,0,220.93,386.49Z"/><path class="cls-7" d="M95.36,396.07s20-55.25,15.5-106.5S104.19,222.23,98,204.23C96.69,231.23,92.69,381.4,95.36,396.07Z"/><path class="cls-4" d="M157,174.57c-41.16,0-48.49,10.33-48.5,10.33l.59-32.46s-2.38-10.12,14-13.5,33.91-3,33.91-3Z"/><path class="cls-8" d="M109.11,152.44s-11.46,3.18-15.42,15l-1.09-7s7-14.79,19.17-16h0A9.38,9.38,0,0,0,109.11,152.44Z"/><path class="cls-7" d="M128.19,511.48l-2.67-7.5S136,507.9,157,507.9v7.5C147,515.4,130.69,512.48,128.19,511.48Z"/><path class="cls-10" d="M124.27,508.32l-1.62-5.05a4.26,4.26,0,0,0-2.5-2.66C114.52,498.42,98,491.27,95,482.07v6.66S102.07,501.63,124.27,508.32Z"/><path class="cls-12" d="M124.27,508.32l-1.62-5.05a4.24,4.24,0,0,0-.76-1.36v0l-8.73-85.27,1.38.55,11,86.81,2.67,7.5Z"/><path class="cls-11" d="M95,315.57c.05-2.69.1-5.38.15-8.09l16.36-4.31c0,1.72,0,3.43,0,5.15Z"/><path class="cls-11" d="M97,233.41l10,16c.14,1.24.28,2.5.42,3.8l-10.55-16.3C96.9,235.73,96.94,234.56,97,233.41Z"/><path class="cls-12" d="M84.19,460.23V411.57l3.17-5.5V251.73L84.19,236.9V192.73l5.25-8.91s.08-6.92,2.42-20.42a30.17,30.17,0,0,1,.74-3l1.09,7S87.86,259,89.11,303.17s-.5,149.9,5.87,178.9v6.66l-.75.83a52.21,52.21,0,0,1-2.54-13.16Z"/><path class="cls-12" d="M93.12,386.49l-9.42-3.76a9.24,9.24,0,0,1-4.09-3.19L78.52,378a1.52,1.52,0,0,1,1.65-2.36L91,378.73a3.07,3.07,0,0,1,2.17,2.32l.2.93,1.21.36a2.13,2.13,0,0,1,1.3,1l0,0A2.21,2.21,0,0,1,93.12,386.49Z"/><path class="cls-5" d="M199.65,233.13l1,.07c-6.84,91.48,3.6,128.48,3.7,128.84l-1,.28C203.28,362,192.78,324.83,199.65,233.13Z"/><path class="cls-12" d="M114.4,233.13l-1,.07c6.84,91.48-3.6,128.48-3.7,128.84l1,.28C110.77,362,121.27,324.83,114.4,233.13Z"/><path class="cls-9" d="M202.57,353.82s-16.34,4.25-45.55,4.25v65.62s35,1.13,53.8-12.5c4.75-3.62,5.5-6.5,4.75-8.87S202.57,353.82,202.57,353.82Z"/><path class="cls-9" d="M200.36,237.73l5.16-52.83s-7.33-10.33-48.5-10.33V234.4S186.69,234.73,200.36,237.73Z"/><path class="cls-7" d="M111.48,353.82s16.34,4.25,45.54,4.25v65.62s-35,1.13-53.79-12.5c-4.75-3.62-5.5-6.5-4.75-8.87S111.48,353.82,111.48,353.82Z"/><path class="cls-7" d="M113.69,237.73l-5.17-52.83s7.34-10.33,48.5-10.33V234.4S127.36,234.73,113.69,237.73Z"/><path class="cls-13" d="M195.23,355.26c-1.76.29-3.83.6-6.19.91l9.62,61.32a53.25,53.25,0,0,0,10.64-5.26Z"/><path class="cls-13" d="M181.86,421.81a102.24,102.24,0,0,0,11.1-2.47l-7-62.81c-1.69.19-3.49.37-5.42.54Z"/><path class="cls-13" d="M199.6,180.93a52.19,52.19,0,0,0-9.63-3.21l-2.6,58.18c2.37.23,4.66.48,6.81.77Z"/><path class="cls-11" d="M114.45,180.93a52.31,52.31,0,0,1,9.62-3.21l2.61,58.18c-2.37.23-4.66.48-6.81.77Z"/><path class="cls-13" d="M171.71,234.85c3.18.15,6.63.34,10.09.59L184,176.51c-3.53-.6-7.62-1.1-12.33-1.44Z"/><path class="cls-11" d="M203.72,283.61c-.17,1.93-.35,3.91-.53,6-.11,1.24-.2,2.48-.28,3.72l15.74,1.32c-.1-4.62-.2-9.22-.3-13.77Z"/><path class="cls-11" d="M219.37,336.34l-15.85-10.52c.62,6.66,1.48,13.14,2.49,19.31l13.56,12.61C219.54,351.1,219.47,343.9,219.37,336.34Z"/><path class="cls-14" d="M193.53,500.81a5.25,5.25,0,0,0,3.34,1.15c2.63,0,4.75-1.78,4.75-4a3.16,3.16,0,0,0-.09-.76c-3.1,1.54-5.89,2.69-7.63,3.37A3.35,3.35,0,0,0,193.53,500.81Z"/><path class="cls-14" d="M207.44,495.62c1.67,0,3-1,3-2.33a1.87,1.87,0,0,0-.35-1.06c-1.47,1-3,2-4.55,2.87A3.54,3.54,0,0,0,207.44,495.62Z"/><path class="cls-14" d="M120.52,500.81a5.26,5.26,0,0,1-3.35,1.15c-2.62,0-4.75-1.78-4.75-4a3.17,3.17,0,0,1,.1-.76c3.1,1.54,5.89,2.69,7.63,3.37A3.35,3.35,0,0,1,120.52,500.81Z"/><path class="cls-14" d="M106.61,495.62c-1.67,0-3-1-3-2.33a1.87,1.87,0,0,1,.35-1.06c1.47,1,3,2,4.55,2.87A3.54,3.54,0,0,1,106.61,495.62Z"/><path class="cls-11" d="M118.82,355.26c1.76.29,3.83.6,6.19.91l-9.62,61.32a53.25,53.25,0,0,1-10.64-5.26Z"/></g></g></g></svg>