<svg xmlns="http://www.w3.org/2000/svg" xmlns:xlink="http://www.w3.org/1999/xlink" viewBox="0 0 832.23 312.2"><defs><style>.cls-1{fill:none;}.cls-2{isolation:isolate;}.cls-3,.cls-5{fill:#b3d8e8;}.cls-3,.cls-32{opacity:0.4;}.cls-20,.cls-27,.cls-28,.cls-3,.cls-32,.cls-35,.cls-39,.cls-43,.cls-5{mix-blend-mode:multiply;}.cls-4{fill:#fff;}.cls-28,.cls-6{fill:#ea4a49;}.cls-7{fill:#bd502d;}.cls-35,.cls-8{fill:#55acb9;}.cls-9{fill:#3c3c3b;}.cls-10{fill:#b2b2b2;}.cls-11{fill:#dadada;}.cls-12{fill:#fdfdfd;}.cls-13{fill:#231f20;}.cls-14{fill:#f9b233;}.cls-15{fill:#634e42;}.cls-16{fill:#9d9d9c;}.cls-17{fill:#ca9e67;}.cls-18{fill:#f6f6f6;}.cls-19{fill:#458b96;}.cls-20{fill:#5589b9;}.cls-20,.cls-26,.cls-27,.cls-28,.cls-35,.cls-43{opacity:0.5;}.cls-21{fill:#232323;}.cls-22{fill:#212121;}.cls-23{fill:#ff9d6d;}.cls-24,.cls-27,.cls-32{fill:#ffae80;}.cls-25{fill:#21201d;}.cls-26,.cls-31,.cls-36{fill:#1d1d1b;}.cls-29{fill:#f59d6c;}.cls-30{fill:#c21e1d;}.cls-31{opacity:0.1;}.cls-33{fill:#ededed;}.cls-34{fill:#f2b779;}.cls-37,.cls-43{fill:#cf3736;}.cls-38{clip-path:url(#clip-path);}.cls-39{opacity:0.15;}.cls-40{fill:#222220;}.cls-41{clip-path:url(#clip-path-2);}.cls-42{clip-path:url(#clip-path-3);}.cls-44{fill:#573319;}.cls-45{fill:#714220;}.cls-46{fill:#382009;}</style><clipPath id="clip-path"><path class="cls-1" d="M649.8,226.74c0,38,98.68,38,98.68,0l-1.14-12.08-.73-7.77a32,32,0,0,0-31.85-29H683.17a32,32,0,0,0-31.88,29.53l-.57,7.2Z"/></clipPath><clipPath id="clip-path-2"><path class="cls-1" d="M357.63,226.74c0,38,98.68,38,98.68,0l-1.14-12.08-.73-7.77a32,32,0,0,0-31.84-29H391a32,32,0,0,0-31.88,29.53l-.56,7.2Z"/></clipPath><clipPath id="clip-path-3"><path class="cls-1" d="M527.86,71.09c16.87.57,33,1.43,47.87,2.58,10,1.58,11.69,2.21,15.77,6l.21.19,40.17,34.44a16.25,16.25,0,0,1,4.24,5.65,2.76,2.76,0,0,1-2.6,3.87l-104.83-2.33a3.29,3.29,0,0,1-3.21-3.28V73.38A2.3,2.3,0,0,1,527.86,71.09Zm-114,47.81,93,2.07a2.85,2.85,0,0,0,2.92-2.86V73.93c0-2.51-.61-3.32-3.06-3.35-6.24-.06-10-.21-16.21-.25-3.36,0-6.73,0-10.06,0-4.92,0-9.16-.05-13.16-.09-3.52,0-6.84-.08-10.27-.08-6.45,0-12.28.15-18.89.45a6.64,6.64,0,0,0-3.35,1.31c-7.25,5-16.51,23.36-23.51,43.2A2.86,2.86,0,0,0,413.9,118.9Z"/></clipPath></defs><title>Car_family</title><g class="cls-2"><g id="Layer_2" data-name="Layer 2"><g id="Artwork"><path class="cls-3" d="M795.44,239H731a18.29,18.29,0,0,0,2-36.47h8.34a18.3,18.3,0,0,0,0-36.59H138.06a18.3,18.3,0,0,0,0,36.59h36.55l-.35.05H22.59a22.6,22.6,0,0,0,0,45.19h64a18.26,18.26,0,0,0,15.6,27.82H277.29a18.29,18.29,0,0,0,0,36.58H683.46a18.29,18.29,0,0,0,0-36.58h112a18.3,18.3,0,0,0,0-36.59Z"/><polygon class="cls-4" points="405.16 183.72 420.47 183.72 506.68 102.94 494.67 102.94 405.16 183.72"/><path class="cls-5" d="M781.9,255.43a7.59,7.59,0,0,1-7.59,7.59H112.16a7.58,7.58,0,0,1-7.58-7.59h0a7.58,7.58,0,0,1,7.58-7.59H774.31a7.59,7.59,0,0,1,7.59,7.59Z"/><path class="cls-3" d="M233.29,302.12a10.08,10.08,0,0,1-10.08,10.08H152.79a10.08,10.08,0,0,1-10.08-10.08h0A10.09,10.09,0,0,1,152.79,292h70.42a10.09,10.09,0,0,1,10.08,10.08Z"/><path class="cls-3" d="M95.91,292.65a9.47,9.47,0,0,1-9.48,9.47H77.92a9.47,9.47,0,0,1-9.47-9.47h0a9.48,9.48,0,0,1,9.47-9.48h8.51a9.48,9.48,0,0,1,9.48,9.48Z"/><path class="cls-3" d="M123.36,297.39a4.73,4.73,0,0,1-4.73,4.73h-1.24a4.74,4.74,0,0,1-4.74-4.73h0a4.74,4.74,0,0,1,4.74-4.74h1.24a4.74,4.74,0,0,1,4.73,4.74Z"/><path class="cls-3" d="M775.87,300.41a7.76,7.76,0,0,1-7.76,7.76H728.59a7.76,7.76,0,0,1-7.76-7.76h0a7.76,7.76,0,0,1,7.76-7.76h39.52a7.76,7.76,0,0,1,7.76,7.76Z"/><path class="cls-3" d="M832.23,217.88a7.23,7.23,0,0,1-7.23,7.23H786.91a7.23,7.23,0,0,1-7.23-7.23h0a7.24,7.24,0,0,1,7.23-7.24H825a7.24,7.24,0,0,1,7.23,7.24Z"/><path class="cls-3" d="M813.73,289.63a2.41,2.41,0,0,1-2.41,2.41H795a2.41,2.41,0,0,1-2.42-2.41h0a2.42,2.42,0,0,1,2.42-2.42h16.32a2.41,2.41,0,0,1,2.41,2.42Z"/><path class="cls-3" d="M72.77,269.47a6.45,6.45,0,0,1-6.45,6.45H27.41A6.45,6.45,0,0,1,21,269.47h0A6.45,6.45,0,0,1,27.41,263H66.32a6.45,6.45,0,0,1,6.45,6.45Z"/><path class="cls-3" d="M635.39,282.77a6.85,6.85,0,0,1-6.85,6.86H588.19a6.86,6.86,0,0,1-6.86-6.86h0a6.86,6.86,0,0,1,6.86-6.85h40.35a6.85,6.85,0,0,1,6.85,6.85Z"/><path class="cls-3" d="M527.66,293.51a3.88,3.88,0,0,1-3.88,3.88H513.47a3.89,3.89,0,0,1-3.89-3.88h0a3.88,3.88,0,0,1,3.89-3.88h10.31a3.88,3.88,0,0,1,3.88,3.88Z"/><path class="cls-3" d="M352.18,282.77a6.85,6.85,0,0,1-6.85,6.86h-32.8a6.85,6.85,0,0,1-6.85-6.86h0a6.85,6.85,0,0,1,6.85-6.85h32.8a6.85,6.85,0,0,1,6.85,6.85Z"/><path class="cls-3" d="M437.11,297.39a7.33,7.33,0,0,1-7.33,7.33H372.54a7.33,7.33,0,0,1-7.33-7.33h0a7.34,7.34,0,0,1,7.33-7.34h57.24a7.34,7.34,0,0,1,7.33,7.34Z"/><path class="cls-3" d="M468.36,285a2.23,2.23,0,0,1-2.22,2.22h-9.93A2.22,2.22,0,0,1,454,285h0a2.21,2.21,0,0,1,2.21-2.22h9.93a2.22,2.22,0,0,1,2.22,2.22Z"/><path class="cls-3" d="M581.33,297.81a4.3,4.3,0,0,1-4.3,4.31h-16.8a4.3,4.3,0,0,1-4.3-4.31h0a4.29,4.29,0,0,1,4.3-4.3H577a4.29,4.29,0,0,1,4.3,4.3Z"/><rect class="cls-6" x="185.29" y="174.54" width="52.31" height="77.94" rx="8.71" ry="8.71"/><rect x="185.29" y="190.08" width="52.31" height="4.67"/><rect x="196.05" y="174.54" width="3.1" height="71.99"/><rect class="cls-7" x="224.37" y="174.54" width="3.14" height="71.99"/><rect class="cls-8" x="219.33" y="201.95" width="77.11" height="52.74" rx="5.99" ry="5.99"/><path class="cls-9" d="M266.09,198.55a21.73,21.73,0,0,0-16.43,0,1.94,1.94,0,0,1-2.45-.79,1.83,1.83,0,0,1,1.13-2.47,25.3,25.3,0,0,1,19.08,0,1.82,1.82,0,0,1,1.14,2.44A2,2,0,0,1,266.09,198.55Z"/><path class="cls-10" d="M249.09,202h-1.35v-4.36a.64.64,0,0,1,.64-.64.71.71,0,0,1,.71.71Z"/><path class="cls-10" d="M268.12,202h-1.35v-4.36a.64.64,0,0,1,.64-.64.71.71,0,0,1,.71.71Z"/><path class="cls-11" d="M227.62,209.59a.65.65,0,0,1-.65.65h-7.59a.65.65,0,0,1-.65-.65v-2.54a5.7,5.7,0,0,1,5.7-5.7H227a.65.65,0,0,1,.65.65Z"/><path class="cls-11" d="M288.15,209.59a.65.65,0,0,0,.65.65h7.59a.65.65,0,0,0,.65-.65v-2.54a5.7,5.7,0,0,0-5.7-5.7H288.8a.65.65,0,0,0-.65.65Z"/><path class="cls-11" d="M288.15,247a.65.65,0,0,1,.65-.65h7.59a.65.65,0,0,1,.65.65v2.54a5.7,5.7,0,0,1-5.7,5.7H288.8a.65.65,0,0,1-.65-.65Z"/><path class="cls-11" d="M227.62,247a.65.65,0,0,0-.65-.65h-7.59a.65.65,0,0,0-.65.65v2.54a5.7,5.7,0,0,0,5.7,5.7H227a.65.65,0,0,0,.65-.65Z"/><path d="M232.28,217.91H216.77v-3.66a2.63,2.63,0,0,0-2.62-2.63h-11a2.63,2.63,0,0,0-2.62,2.63v3.66H185a6.41,6.41,0,0,0-6.41,6.41v23.84a6.41,6.41,0,0,0,6.41,6.41h47.25a6.41,6.41,0,0,0,6.41-6.41V224.32A6.41,6.41,0,0,0,232.28,217.91ZM203,214.25a.19.19,0,0,1,.19-.19h11a.19.19,0,0,1,.19.19v3.66H203Z"/><rect class="cls-12" x="189.58" y="217.91" width="5.29" height="36.67"/><rect class="cls-12" x="221.61" y="217.91" width="5.29" height="36.67"/><path class="cls-13" d="M195.68,228.68h-6.91v-6.37h6.91Zm-5.29-1.62h3.67v-3.13h-3.67Z"/><path class="cls-13" d="M227.71,228.68H220.8v-6.37h6.91Zm-5.29-1.62h3.67v-3.13h-3.67Z"/><path class="cls-14" d="M185.68,206.52h-.07c-9.66-.11-14.45,2.18-14.4,7.95a11.13,11.13,0,0,0,1.29,4.91c1.14,2.34,1.42,5.68-.34,7.71-4.18,4.83-5.8,9.53-5.85,14.22-.1,8.91,7.54,13.77,17.22,13.87l1.61,0,1.61,0c9.67.11,17.42-4.58,17.52-13.48,0-4.7-1.47-9.44-5.54-14.36-1.71-2.07-1.36-5.39-.16-7.71a11.37,11.37,0,0,0,1.4-4.88c.17-5.77-4.56-8.16-14.23-8.27Z"/><path class="cls-9" d="M185.45,226.76a4.93,4.93,0,1,1,5-4.87A4.93,4.93,0,0,1,185.45,226.76Z"/><path class="cls-6" d="M185.43,228.72a6.89,6.89,0,1,1,7-6.81A6.9,6.9,0,0,1,185.43,228.72Zm.14-12.86a6,6,0,1,0,5.9,6A6,6,0,0,0,185.57,215.86Z"/><rect class="cls-15" x="183.93" y="227.6" width="2.8" height="20.14" transform="translate(-54.39 420.34) rotate(-89.36)"/><rect class="cls-16" x="182.91" y="173.99" width="0.54" height="3.74" transform="matrix(0.01, -1, 1, 0.01, 5.3, 357.08)"/><rect class="cls-16" x="188.58" y="173.8" width="0.54" height="3.74" transform="translate(11.09 362.56) rotate(-89.36)"/><path class="cls-11" d="M181.1,176.77h-.74a.45.45,0,0,1-.46-.44l0-1a.45.45,0,0,1,.46-.43h.74a.45.45,0,0,1,.46.44v1A.44.44,0,0,1,181.1,176.77Z"/><path class="cls-11" d="M190.91,176.63h.75a.45.45,0,0,0,.46-.43v-1a.44.44,0,0,0-.45-.44h-.75a.45.45,0,0,0-.46.43v1A.44.44,0,0,0,190.91,176.63Z"/><rect class="cls-16" x="182.59" y="168.86" width="0.54" height="3.74" transform="translate(10.11 351.68) rotate(-89.37)"/><rect class="cls-16" x="189.02" y="168.93" width="0.54" height="3.74" transform="translate(16.4 358.19) rotate(-89.36)"/><polygon class="cls-15" points="183.09 180.21 182.02 217.32 189.09 217.4 188.84 180.27 183.09 180.21"/><rect class="cls-17" x="185.64" y="177.03" width="0.67" height="5.75" transform="translate(3.99 363.85) rotate(-89.36)"/><path class="cls-15" d="M186.13,166l-2.23-.09c-.68,0-1.05.06-1.35.64l-.74,1.95a1.48,1.48,0,0,0-.07,1.2c1,2.64.76,5.22.7,8.09a1.58,1.58,0,0,0,.17.74l.49,1,5.75.07.51-1a1.56,1.56,0,0,0,.19-.73c0-2.87-.19-5.46.88-8.07a1.5,1.5,0,0,0-.05-1.21l-.69-2c-.28-.59-.66-.63-1.34-.67Z"/><path class="cls-11" d="M180.78,171.64H180a.45.45,0,0,1-.45-.45v-1a.45.45,0,0,1,.46-.44h.75a.45.45,0,0,1,.45.44v1A.44.44,0,0,1,180.78,171.64Z"/><path class="cls-11" d="M191.35,171.76h.74a.45.45,0,0,0,.47-.43v-1a.45.45,0,0,0-.45-.44h-.75a.45.45,0,0,0-.46.43v1A.44.44,0,0,0,191.35,171.76Z"/><path class="cls-18" d="M185.92,184.3a.45.45,0,0,1-.43-.45.44.44,0,0,1,.44-.44.43.43,0,0,1,.43.45A.44.44,0,0,1,185.92,184.3Z"/><path class="cls-18" d="M185.87,189.52a.44.44,0,0,1-.43-.45.44.44,0,0,1,.44-.44.42.42,0,0,1,.42.45A.44.44,0,0,1,185.87,189.52Z"/><path class="cls-18" d="M185.81,194.87a.44.44,0,0,1-.43-.45.44.44,0,0,1,.44-.44.45.45,0,0,1,0,.89Z"/><path class="cls-18" d="M185.72,202.5a.44.44,0,0,1-.43-.45.44.44,0,0,1,.44-.44.45.45,0,0,1,.43.45A.44.44,0,0,1,185.72,202.5Z"/><path class="cls-18" d="M185.64,209.59a.44.44,0,1,1,.44-.44A.44.44,0,0,1,185.64,209.59Z"/><path class="cls-18" d="M185.59,214a.44.44,0,0,1-.43-.45.45.45,0,0,1,.44-.44.44.44,0,0,1,.43.45A.44.44,0,0,1,185.59,214Z"/><rect class="cls-4" x="184.95" y="232.85" width="0.77" height="9.85" transform="translate(-54.5 420.42) rotate(-89.36)"/><polygon class="cls-10" points="182.48 237.64 182.12 237.63 183.69 179.84 184.12 175.87 184.48 175.91 184.05 179.86 182.48 237.64"/><polygon class="cls-10" points="184.4 237.66 184.04 237.66 185.13 179.9 183.75 170.77 184.1 170.72 185.49 179.87 184.4 237.66"/><polygon class="cls-10" points="188.22 237.71 187.94 179.92 187.39 175.91 187.75 175.86 188.3 179.89 188.59 237.71 188.22 237.71"/><polygon class="cls-10" points="186.08 237.68 186.47 179.91 188.04 170.74 188.4 170.8 186.83 179.95 186.44 237.68 186.08 237.68"/><path class="cls-11" d="M185.05,175.85a.57.57,0,0,1-.59.56.58.58,0,0,1-.59-.57.57.57,0,0,1,.6-.55A.56.56,0,0,1,185.05,175.85Z"/><path class="cls-11" d="M184.52,170.75a.6.6,0,0,1-1.19,0,.59.59,0,0,1,.6-.56A.58.58,0,0,1,184.52,170.75Z"/><path class="cls-11" d="M188.81,170.78a.56.56,0,0,1-.59.55.58.58,0,0,1-.59-.57.59.59,0,0,1,1.18,0Z"/><path class="cls-11" d="M187,175.88a.59.59,0,0,0,.59.57.59.59,0,0,0,.6-.56.6.6,0,0,0-1.19,0Z"/><path class="cls-14" d="M335.76,175.64,327,173.47l-2.11-.52-5.42-1.35-3.14-2.34-3-2.25-25.43-19-1.78-1.33-.68-.51-3.62-2.7-7.21-5.37-3.88-2.91,2.77-10.11,2.23-8.15,1.6-5.83h15.42q1.92,2.34,3.84,4.59c.14.18.29.35.42.51,2.75,3.18,5.5,6.25,8.31,9.15.64.68,1.31,1.35,2,2a2.16,2.16,0,0,0,.31.3c7,7,14.21,12.88,21.79,17.08l.33.17,1.1.59Z"/><path class="cls-19" d="M285.63,105.61,278.1,138l-7.49.16,1.66-32.5a8.45,8.45,0,0,1,3.34-7.09,6.34,6.34,0,0,1,5.29-1.22l.13,0A6.63,6.63,0,0,1,285.63,105.61Z"/><path class="cls-19" d="M303.83,90.28,277.7,97.53l.94,14.24,28.28-7.32c3.65-.75,9.53-4.3,8.39-9C315.31,95.45,313.35,87.75,303.83,90.28Z"/><path class="cls-20" d="M270.76,128.35c-.53-.66,8.57-24.58,8.57-24.58l19.45-8.37Z"/><path class="cls-21" d="M259.79,198.67a12.23,12.23,0,0,0,.64,1.92,3.06,3.06,0,0,0,2,2.47,13.14,13.14,0,0,0,7.57.56c3.1-.59,5.9-2.11,6.51-4.56l.14-3.61.32-7.76.28-6.89,1-25.28c.17-1.63-16.8-8.41-17-8.15-1.46,4.85-2.2,7.38-1.14,12C258.08,170.88,258.47,193.34,259.79,198.67Z"/><path class="cls-22" d="M247.8,252.29c9.1,1.59,5.5,1.39,14.25,2.93l11.74-.15a5.13,5.13,0,0,0-1.45-4.51c-2.08-1.82-3.67-1.35-6.2-2.61a8.48,8.48,0,0,1-2.8-2.17,9.32,9.32,0,0,0-1.25-1.26,8.43,8.43,0,0,0-2.49-1.45,11.46,11.46,0,0,0-3.68-.73,26.09,26.09,0,0,0-4.66.31c-.53.09-2.12,1.62-3.15,7.78Z"/><polygon class="cls-9" points="250.46 245.44 255.48 246.14 258.7 246.59 261.45 246.99 262.09 244.52 263.22 240.11 264.17 236.39 261.8 235.63 256.49 233.91 254.03 233.13 252.78 237.47 251.26 242.66 250.46 245.44"/><path class="cls-21" d="M248,247.44c0,.78,15.37.38,15.74-1.19,0-8.43,7.69-28.39,12.78-47.19l.08-.29a15.09,15.09,0,0,0,.06-3.32c-.33-4.94-2.61-10.95-6.32-12.14a4,4,0,0,0-.76-.18l-.19,0c-2-.27-3.78,1.18-5.22,3.38A32.6,32.6,0,0,0,260,198.24c-.09.14-.15.27-.24.43C255.84,206.27,249.79,232.41,248,247.44Z"/><path class="cls-23" d="M316,104c-5.8.16-3.82-8.55-4-12.65l7.06-7.11,8.59,10.63Z"/><path class="cls-24" d="M327.46,101.3a2.94,2.94,0,0,1-2.92-.35l-2-1.56A7.13,7.13,0,0,1,321,97.07c-1.16-2.64-4-10.92-3.11-12.47,1-1.72,1-5.35,2.36-7.59,7.17-9.19,12.6-4.41,16.08-1.85a9.88,9.88,0,0,1,3.81,9.45,12.79,12.79,0,0,1-1.2,3.69,20.24,20.24,0,0,1-1.17,2c-.66.45-1.28.78-1.28.78l-.15.65-.63,2.91a1.25,1.25,0,0,1-1.71.81L332.9,95c-.47.62-2.81,4.31-2.81,4.31A6.09,6.09,0,0,1,327.46,101.3Z"/><path class="cls-25" d="M316.49,86.92c5.34,6,7.07-3.85,7.07-3.85s-.24,3.33-.19,4.35c1,.74,1,.74,2,1.35,6.21-7.72,7.27-12.44,14.73-4.15,8.4,2,.11-8.38-3.93-11.27-4.74-3.39-10.75-3.77-14.58.62C319.39,76.52,318,77.85,316.49,86.92Z"/><path class="cls-8" d="M263.1,139.57c11.51,11.66,22.45,6.55,24.62,7.05.14-.1,5.49-5,8.78-8.24.79-.76,1.57-1.54,2.34-2.31s1.45-1.46,2.14-2.17c1.53-1.55,3-3,4.17-4.28l.47-.48c.74-.77,1.38-1.44,1.87-2,.8-.85,1.26-1.36,1.27-1.38.15-.17.28-.33.41-.5,8.56-10.49,10-23.57,10-23.57l-.59-.93.46-.84a1.28,1.28,0,0,0,.11-.27,4.85,4.85,0,0,0-.1-4.27l-4-7.1-2.68,1.92q-.6-.18-1.2-.33a13.51,13.51,0,0,0-3.21-.36,17.08,17.08,0,0,0-6.14,1.19,33.52,33.52,0,0,0-10.31,6.75c-7.26,6.6-13.72,16.1-18.44,23.59-1,1.56-1.86,3-2.68,4.34C269.17,127.44,263.93,138.27,263.1,139.57Z"/><path class="cls-9" d="M259.7,154.61a14,14,0,0,0,2.35,8.06c1.69,2.38,4.43,4.22,8.72,5l3.82-1.86L278,164.2l7.77-3.81.27-.12,3.51-1.73L287.94,148l-.21-1.41-.19,0-2.07-.39-3.18-.61-4.1-.77-5.07-1-2.52-.48-7.5-3.8s-.22.53-.56,1.41c-.68,1.93-2.59,7.9-2.81,11.94A15.93,15.93,0,0,0,259.7,154.61Z"/><path class="cls-9" d="M298.48,195c.19,3.57-4.75,6.27-9.2,7l-1,.12a10.45,10.45,0,0,1-2.24,0c-1.71-.18-3.06-.84-3.54-2-1.44-1.64-3.43-6.38-5.5-12.31-2-5.6-4-12.28-5.77-18.34a3.34,3.34,0,0,0-.1-.4l-.36-1.25c-.2-.71-.4-1.4-.59-2.08-1.05-3.85-1.93-7.26-2.5-9.79-.3-1.26-.52-2.29-.64-3.05a2.4,2.4,0,0,1,0-.24,12.92,12.92,0,0,1,3.45-1.58,17,17,0,0,1,9.27-.8,9.12,9.12,0,0,1,3,1.33c2.43,1.65,5,.61,5.14,1.44l1,3.8c.2.59.4,1.21.6,1.81,1.47,4.49,2.88,8.93,4.13,13.26a136.26,136.26,0,0,1,4.36,19c.2,1.38.34,2.71.44,4A1.09,1.09,0,0,1,298.48,195Z"/><path class="cls-22" d="M282.75,253.06v1.87h26.39s1.25-4-1-5.37c-3.33-2-7.85-.85-11.18-3.73a8.1,8.1,0,0,0-1.45-1,9.22,9.22,0,0,0-4.57-1.2,14,14,0,0,0-2.62.24l-.44.08a26,26,0,0,0-3.35.93C284,245,282.69,246.81,282.75,253.06Z"/><path class="cls-9" d="M284.19,247.73l4-.13h.16l1.46-.05,5.43-.17.2-2.55.23-3,.41-5.35L285.93,235l-.3,0c-.07.12-.78,6.73-.78,6.73l-.35,3.14Z"/><path class="cls-9" d="M282.75,250.45c.22.77,15.25-2.63,15.25-4.2l.78-49.55a14.23,14.23,0,0,0-.32-1.92c-1.24-5.31-5.57-12.13-10.11-11.7l-.19,0c-2.63.24-4.17,3.27-5,6.89q0,.21-.09.45c-.05.26-.1.53-.15.78a35.65,35.65,0,0,0-.41,8.78,66.46,66.46,0,0,0-1.72,13.7C280.47,221.53,281.7,241.46,282.75,250.45Z"/><path class="cls-24" d="M322,82.9c-1.07,1.48-1.07,4.09-.1,4.79s1.73-.57,2.81-2c.72-1,2-2.18,1.14-3.26S323.61,80.74,322,82.9Z"/><path class="cls-26" d="M262.05,162.68c1.68,2.36,4.42,4.21,8.73,5,.12.41.23.84.35,1.26a2.52,2.52,0,0,1,.12.39c1.73,6.07,3.78,12.74,5.76,18.34,2.06,5.92,4.07,10.68,5.51,12.31a66.46,66.46,0,0,0-1.72,13.7c-.33,7.83,1.89,33.11,1.95,39.36v1.87H289l-.78-7.33-.38-3.66-.17-1.62a59.37,59.37,0,0,1-2.12-7.2,55.34,55.34,0,0,1,2.73-33.07c.55-1.45,1.19-2.91,1.87-4.36a49.88,49.88,0,0,1-7-7.7,44.59,44.59,0,0,1-8.56-24.16,19.78,19.78,0,0,1-4.42-.21A25.48,25.48,0,0,1,262.05,162.68Z"/><path class="cls-20" d="M273.12,143.84l5.07,1,4.1.77,3.18.61,2.07.39.19,0,.21,1.41,25.42,19c.37,1.34.26,2.57,1.18,3.75.09.11.18.2.28.31l1.54-1.82,1.33-1.55-2.85-5.21-.27-.47-1.63-3-4.52-8.22-7.09-12.91,1.18-3.66.89-2.8.73-2.22,1.23-3.83,3.81-11.81-7.46-7.77-2.39,4.64-2.7,5.29L288,132.49l-2.82,9.78Z"/><path class="cls-26" d="M273.1,143.84a66.79,66.79,0,0,1,6.63,6.32,45.12,45.12,0,0,1,6,10.23c4.15,9.22,7.62,21.08,11.55,30.88a2.18,2.18,0,0,0,.09.23l.64-.74a137.26,137.26,0,0,0-4.35-19c-1.26-4.33-2.67-8.77-4.15-13.26L287.94,148l-.21-1.41-.19,0-2.07-.39-3.18-.61-4.1-.77-5.07-1Z"/><path class="cls-8" d="M302.12,103.34l-9.85,25,12.13,6.93,11-26.2C317,105.7,317.51,98.85,313,97,313,97,305.62,94.14,302.12,103.34Z"/><path class="cls-24" d="M326.8,170.66a1.08,1.08,0,0,1-1,.8,1.88,1.88,0,0,1-1.25-.52,7.64,7.64,0,0,1-1.61-2.43,5.61,5.61,0,0,0-2.32-2.49,5,5,0,0,0-.19,4.18c1,2.2,2.64,1.43,4.5,2.75-1.49-.15-4.46,1.69-5.76,1a18.58,18.58,0,0,1-4.36-2.85c-.09-.11-.18-.2-.26-.31-.92-1.18-.83-2.41-1.19-3.75-.07-.22-.13-.43-.21-.64a11.25,11.25,0,0,1-.67-2.61c-.15-1.08-.2-2.17-.25-3.25a1.83,1.83,0,0,1,.14-1,1.13,1.13,0,0,1,.56-.45,2.41,2.41,0,0,1,.42-.16,8.77,8.77,0,0,1,4.84.13,13.29,13.29,0,0,1,1.43.47,7.19,7.19,0,0,1,3.1,1.89c1.84,2.11,1.92,5.63,3.51,8C326.51,169.71,326.88,170.16,326.8,170.66Z"/><path class="cls-8" d="M292.67,127.65l-.22.37a2.91,2.91,0,0,0-.18.35,8.79,8.79,0,0,0-.49,1.27,8.47,8.47,0,0,0,1.78,7.63l.82,1.15,10.81,15.21,7.24,10.16,5.78-4.78-5.62-11.88-6.72-14.25-1-2.1L304,128.9a6.64,6.64,0,0,0-8.69-3.55l-.11.05A5.41,5.41,0,0,0,292.67,127.65Z"/><path class="cls-24" d="M245.26,254.12a.92.92,0,0,0-.14-.14l-.1-.07a1.08,1.08,0,0,0-.24-.18c-1.29-.9-4.2-1.94-6.46-3.39,0,0-5.76-5.68-6.16-9a40.63,40.63,0,0,1-.26-4.12l-6.4.22a9.88,9.88,0,0,1,.3,3.74c-1.4,3.88-1.5,6-1.22,8,0,0,0,.09,0,.13.22,1.66.68,3.29.88,5.83h2.62v-.15h0l-.36-4.36.33.4,2.15,2.62a4,4,0,0,0,1.85,1.27c.12,0,.27.09.4.13l.49.07a2.6,2.6,0,0,0,.4,0h11.4a2.45,2.45,0,0,0,.33-.18C245.52,254.73,245.53,254.43,245.26,254.12Z"/><path class="cls-6" d="M225.79,241.21c0-.06.24,0,.54,0a5.27,5.27,0,0,1,3.68,2.84l1.87,3.75a4.66,4.66,0,0,0,4.3,2.59l2.15-.07.11.13c3.49,2.35,9,3.48,6.32,4.75H233.35a3.8,3.8,0,0,1-3-1.52l-2.25-3,0,4.53h-2.6C225.44,249.45,222.73,248.3,225.79,241.21Z"/><path class="cls-19" d="M210.62,139c-7.44,6.24-6.36,15.08-1.11,25.19.19.59,9.84,30.64,10.08,31.22-1.11,2.64-2.18,8.85-1.77,14.54.38,5.91,5.34,21.07,7.44,28.35l6.71-.43c-.47-14.21,0-35.38-1-42.21h0c.68-11.21-1.51-33.74-5.07-47.87Z"/><path class="cls-24" d="M220.5,254.35a.45.45,0,0,0-.06-.12.38.38,0,0,0-.08-.11.46.46,0,0,0-.12-.12s-.08-.07-.12-.12a7,7,0,0,0-.84-.52l-.88-.43,0,0-1.06-.48c-.77-.37-1.6-.75-2.38-1.19l-.61-.36a5.87,5.87,0,0,1-.67-.43h0l-.11-.12c-.86-1-5.36-6.14-5.42-9.13,0-.78,0-1.75.11-2.86l-6.83-2c.2,2.42.23,4.19-.09,4.87-.15.33-.3.66-.42,1h0a17.16,17.16,0,0,0-.88,2.53c-.07.25-.12.5-.17.74s-.07.43-.1.63c0,0,0,.08,0,.13s0,.38,0,.56a5.78,5.78,0,0,0,0,.58c0,.25,0,.49,0,.74s0,.38.05.57c.07.55.17,1.08.28,1.64,0,.14.06.29.09.44s.1.56.16.86c0,.1,0,.2,0,.3,0,.25.07.5.11.77a17.77,17.77,0,0,1,.11,2.52h2.62l.12-4.5v0l1,1.4.18.25,1,1.38a2.13,2.13,0,0,0,.28.33,3.66,3.66,0,0,0,1,.77,3.7,3.7,0,0,0,1.68.39h11.41a4.38,4.38,0,0,0,.46-.25.62.62,0,0,0,.28-.45A.59.59,0,0,0,220.5,254.35Z"/><path class="cls-6" d="M201.3,241.19c0-.06.24-.05.54,0a5.06,5.06,0,0,1,3.58,2.85l1.74,3.75a4.46,4.46,0,0,0,4.21,2.58l2.15-.06.11.12c3.4,2.35,8.88,3.48,6.15,4.76h-11.4a3.67,3.67,0,0,1-3-1.52l-2.15-3-.12,4.53h-2.6C200.66,249.43,198,248.28,201.3,241.19Z"/><path class="cls-24" d="M215.77,101.31l9.7,24.66c2.37,5-5,9.46-7.88,3.08L206.51,105C203.4,96.69,213,94.58,215.77,101.31Z"/><path class="cls-25" d="M218.91,99c-1.6-3.4-1.29-7.42-.25-11s2.74-7,3.94-10.56a39,39,0,0,0,2-10.85c2.86,3.77,5.47,8.83,4.79,13.51-.46,3.22-2.12,7-2.89,10.13-1.42,5.8-1.9,11.23.46,16.72C223.8,104.72,220.52,102.41,218.91,99Z"/><path class="cls-25" d="M231.82,81a9.42,9.42,0,0,1,.18-4.41,29.83,29.83,0,0,1,3.23-8.19l-.45,7.79c-.17,3.08-.27,6.45,1.56,8.94A5.71,5.71,0,0,1,231.82,81Z"/><path class="cls-25" d="M239.46,84.43c-2.44-4.84-1-7-.17-10.2C242.12,63.5,228.15,56.79,219.48,59c-5.9,1.48-9.16,7-9.19,12.24-.1,15.07-12.44,13.22-2.49,35.12,1.73-2.38-.1-8.77,2.68-9.83s4.05-7.32,6.21-9.32A21.29,21.29,0,0,0,220.4,82a17.31,17.31,0,0,1,3.87-5.1,6.55,6.55,0,0,1,6.08-1.38C230.34,79.16,235.93,83.14,239.46,84.43Z"/><polygon class="cls-24" points="211.1 88.97 221.24 96.24 222.62 89.7 223.66 84.78 224.11 82.65 216.38 74.38 211.1 88.97"/><path class="cls-24" d="M221.19,92.37c3.58,14.53,10.13,9.94,11,18a7.23,7.23,0,0,1-5.76,8.27c-.77,7.65-2.78,16.58-2.3,21.78,0,0-16.65-3.12-17.78-3.4,2.76-7.85-2.08-16.34-2.08-30.63,0-7.72,7.36-18.83,7.36-18.83S220.65,90.21,221.19,92.37Z"/><path class="cls-6" d="M232.86,111.15a8.29,8.29,0,0,1-.24,2l-.31.93c-1.52,3.88-5.76,5-5.76,5,0,1.9-.17,5.26-.3,7v0c-.07.66-.13,1.29-.21,1.9-.16,1.48-.34,2.9-.55,4.25-.26,1.85-.51,3.57-.71,5.2,0,.43-.09.88-.14,1.3s-.06.61-.1.88l-.43-.06-.26,0-.22,0-.28,0a4.71,4.71,0,0,0-2.09.42c-1.74.63-4,1.68-6.19,1.35a17.12,17.12,0,0,1-6.39-2.73c-1.24-.79-2.11-1.45-2.35-1.53h0a8.63,8.63,0,0,0,.45-1.71l0,0a16.88,16.88,0,0,0,.34-4.63c0-.44,0-.84-.07-1.29-.21-2.31-.67-4.79-1.16-7.53a2.57,2.57,0,0,1-.06-.4c-.47-2.54-.95-5.28-1.26-8.37,0-.4-.08-.82-.11-1.23-.06-.6-.11-1.18-.14-1.77-.07-1.21-.1-2.4-.1-3.66,0-7.73,5-14.88,5-14.88l3.21,1.23a6.75,6.75,0,0,1,3.64,3.13s.06.1.1.13l2.73,5.25a5.46,5.46,0,0,0,4.36,2.89,40.51,40.51,0,0,1,5.66,1S232.54,105.83,232.86,111.15Z"/><path class="cls-27" d="M218.07,79.64a16.33,16.33,0,0,0,.42,8.55c.39,1.18,3.13,3.85,4,4.72l1.62-5.14c-.31-.28-1.49-1-1.79-1.31A16.17,16.17,0,0,1,218.07,79.64Z"/><path class="cls-24" d="M233.89,75.75C244,60.06,207,52.07,213.08,75.13l3.5,1c0,5,2,8.16,7,11.18s7-.11,8.26-3.72c.23-.64.27-1.65,1.27-1.76,1.29-.14,1.7-.72,1.22-1.7A8,8,0,0,1,233.89,75.75Z"/><path class="cls-25" d="M212.28,80.66a42.67,42.67,0,0,1-1.51-6.56,14.34,14.34,0,0,1,.58-6.64,12,12,0,0,1,7.57-7,15.81,15.81,0,0,1,10.58.64,12.44,12.44,0,0,1,8,9.63c-2,1.21-6.64-2.45-9.83,3.16C221.47,84.74,216.37,81.28,212.28,80.66Z"/><path class="cls-8" d="M225.93,147.82l-5,8.3c-.44,7-1.08,13.82-2,20.29a160,160,0,0,1-3.54,18.32c-.43,7-6.06,28.85-7.19,43.6l-6.72-.47c0-.48-.08-1-.15-1.54v0c-.77-7.81-2.81-21.31-2-27a44.54,44.54,0,0,1,4.73-14.85c-.12-.61-3.62-31.32-3.69-31.92-3.18-10.34-2.46-19.37,6.26-25.76l17.49,2.82.43.06Z"/><path class="cls-28" d="M232.62,113.2l-.31.93c-1.52,3.88-5.76,5-5.76,5,0,1.9-.17,5.26-.3,7v0c-.07.66-.13,1.29-.21,1.9-.16,1.48-.34,2.9-.55,4.25-.26,1.85-.51,3.57-.71,5.2l-.67,2.12-.26,0-.22,0-17-2.76-.29.23h0a8.63,8.63,0,0,0,.45-1.71l0,0a16.88,16.88,0,0,0,.34-4.63c0-.44,0-.84-.07-1.29-.21-2.31-.67-4.79-1.16-7.53a2.57,2.57,0,0,1-.06-.4c-.47-2.54-.95-5.28-1.26-8.37l4.52-2.81,6.28-2.78-.13,16.5c4.22-1.83,7.16-3.22,6.53-7.37C226.22,117.48,229.85,116.4,232.62,113.2Z"/><path class="cls-20" d="M203.93,162.15l4.77,34.22c-7,10-7.26,22.44-7.36,39.93-.77-7.81-2.81-21.31-2-27a44.54,44.54,0,0,1,4.73-14.85c-.12-.61-3.62-31.32-3.69-31.92-3.18-10.34-2.46-19.37,6.26-25.76l17.49,2.82-16.41,3.62C201.44,148.25,200.4,155.71,203.93,162.15Z"/><path class="cls-24" d="M208.69,125.45l27.81.14a19.84,19.84,0,0,1,0,3.36c-7,2.17-23.69,5.74-27.9,5.24C203.6,133.78,203.55,125.52,208.69,125.45Z"/><path class="cls-24" d="M231.42,126.15l7.05-2.16,4.53,1.23,1.53,4.71-2.23,2.28c-1-.23-1.12-1-.44-1.69l-3-1.05c-1.58,1.25-3.84.51-5.7.36Z"/><path class="cls-24" d="M238.47,124l6.06.62,2.93,2.84c.7.65-.19,1.26-.8.65L244.09,126l-5.62.07Z"/><path class="cls-24" d="M215.8,103.65,213,130c-.22,5.53-8.81,6.05-8.4-.93l1.32-26.46C207,93.83,216.46,96.41,215.8,103.65Z"/><path class="cls-29" d="M156.59,254.36c0,.2-.1.4-.16.61h-8.37l-9.24-.46c0-.17-.07-.35-.12-.52a13.11,13.11,0,0,1-.31-4.3,7.2,7.2,0,0,1,.27-1.27,3.06,3.06,0,0,1,.13-.43,2.77,2.77,0,0,1,.1-.26,5.1,5.1,0,0,1,.32-.67c.1-6.11-.05-11.82-.26-16.35-.06-1.24-.11-2.39-.17-3.44-.23-4.07-.46-6.6-.46-6.6l2.29-.6,6.35-1.71,1.91-.51.9-.25v.13c0,.49,0,1,0,1.48,0,.76,0,1.54,0,2.33,0,1.6-.06,3.26-.1,5,0,1.44-.1,2.91-.17,4.39-.26,5-.66,10.15-1.26,15.05a.5.5,0,0,1-.06.18l1.51,1.11,2.05,1.51.36.27c3.84.93,5,2.8,4.49,5.35Z"/><path class="cls-30" d="M138.92,255l-1.31-.05a7.45,7.45,0,0,1-.19-1,10.54,10.54,0,0,1,1.09-5.46c.23-.51.47-1,.71-1.4a3.1,3.1,0,0,1,1.59,1.88,3.72,3.72,0,0,0,2.8,2.28,10.68,10.68,0,0,0,3.47.2,9.06,9.06,0,0,0,1.46-.23c1.74-.54,3.36-1,3.21-2.43l0-.13c3.87.74,5.78,2.27,5.67,5.77,0,.19,0,.4-.06.6Z"/><path class="cls-31" d="M151.24,249.57a1.57,1.57,0,0,0-.06.28l.16,0Z"/><path class="cls-24" d="M162.57,254.35a5.24,5.24,0,0,1-.17.62h-8.27l-7.79-.39h-.28l-1.26-.06c0-.2-.09-.41-.12-.59a11.15,11.15,0,0,1-.05-5.5c.05-.14.09-.3.15-.43a1.39,1.39,0,0,1,.1-.26,5,5,0,0,1,.33-.71c.1-6.27-.08-12.16-.28-16.77-.05-1.08-.1-2.09-.16-3-.23-4.06-.46-6.58-.46-6.58l3.34-.89,2.13-.57,6-1.61c0,.25,0,.51,0,.76q0,1.33,0,2.73c0,1.15,0,2.34-.06,3.54,0,2.11-.12,4.29-.23,6.48-.25,4.93-.67,10-1.25,14.82a.41.41,0,0,1-.05.18l1.55,1.14.44.32,1.57,1.16.3.22a15.6,15.6,0,0,1,2,.7l.25.11a3.8,3.8,0,0,1,2.31,4.53S162.59,254.34,162.57,254.35Z"/><path class="cls-6" d="M144.91,255l-1.32-.05a6.18,6.18,0,0,1-.18-1,10.35,10.35,0,0,1,1.09-5.46,14,14,0,0,1,.71-1.4,3.13,3.13,0,0,1,1.59,1.88,3.68,3.68,0,0,0,2.79,2.28,10.69,10.69,0,0,0,3.47.2,8.86,8.86,0,0,0,1.46-.23c1.75-.54,3.37-1,3.21-2.43l0-.13c3.86.74,5.77,2.27,5.66,5.77,0,.19,0,.4-.05.6Z"/><path class="cls-6" d="M155.76,247.28c0,2.1-3.41,5-4,4.76l-2.89-.42a10.93,10.93,0,0,0,5.29-5.74Z"/><path class="cls-31" d="M157.23,249.57a1.57,1.57,0,0,0-.06.28l.16,0C157.3,249.77,157.26,249.67,157.23,249.57Z"/><path class="cls-32" d="M155.76,217.6c0,.25,0,.51,0,.76q0,1.33,0,2.73c0,1.15,0,2.34-.06,3.54a34.46,34.46,0,0,1-6,1.86,37,37,0,0,1-4.9.76,38.64,38.64,0,0,1-6,0c-.23-4.07-.46-6.6-.46-6.6l2.29-.6,6.35-1.71,1.91-.51.9-.12c0,.49,0,1,0,1.48Z"/><path class="cls-25" d="M141.39,157.62c0-2.4-1.76-6.4-.58-8.73,1.08-2.14-.71.36-1-.13a1.81,1.81,0,0,0-1.57-.77,2.39,2.39,0,0,0-1.61.79,3,3,0,0,1,0,3.4c-.7,1-2,1.83-2.42,3-1.54,3.83,1.22,7.74.08,11.77C139.31,164.27,141.44,160.09,141.39,157.62Z"/><path class="cls-6" d="M140,152.16a.45.45,0,0,0,.39,0,.5.5,0,0,0,.25-.3l.24-.79a.59.59,0,0,0-.05-.47.6.6,0,0,0-.39-.27,17.64,17.64,0,0,1-3-.58.54.54,0,0,0-.58.27l-.29.51a.42.42,0,0,0,0,.38.45.45,0,0,0,.28.26A9.49,9.49,0,0,0,140,152.16Z"/><path class="cls-24" d="M139.05,154.84l8.52,3.88,1-3.2.44-1.46.06-.48.1-.75.1-.62.05-.47c-.3-.26-.59-.51-.9-.74a16.93,16.93,0,0,0-1.94-1.34c-.07,0-.12-.08-.2-.12-2-1.12-3.89-1.41-5.61-.35l-.2,1.74Z"/><path class="cls-6" d="M164.63,217.6c-.92-6-9.29-42.59-11.1-47.57,0-.11-.07-.22-.12-.33-.19-.55-.39-1.1-.61-1.64-1.19-3.12-2.54-6.13-4-9.13-.08-.18-.18-.37-.26-.54a.91.91,0,0,0-.07-.14c-3.48-3.07-3.79-4.17-9-4.16-8.7,10.3-7.38,55.16-6.86,67.43C139.81,224,152.08,221,164.63,217.6Z"/><path class="cls-25" d="M154.78,133.1c1,1.43,1.64,3.38,3.3,3.9a7.06,7.06,0,0,1-4.72-1.47c-1.39-.95-2.62-2.13-4.06-3a6.21,6.21,0,0,0-4.82-1,7.15,7.15,0,0,1,10.3,1.53Z"/><path class="cls-25" d="M153.51,131.62c1.14,1.15,2.05,2.83,3.66,3a6.53,6.53,0,0,1-4.57-.59c-1.43-.65-2.75-1.53-4.21-2.1a5.73,5.73,0,0,0-4.57-.1,6.63,6.63,0,0,1,9.69-.25Z"/><path class="cls-24" d="M157.09,147c-.74.72-.33,1.57-.56,2.57a6.32,6.32,0,0,1-3.24,4.06,5.17,5.17,0,0,1-.64.28,5.5,5.5,0,0,1-1.12.32,5.9,5.9,0,0,1-2.58-.15,7.75,7.75,0,0,1-.77-.26,6.28,6.28,0,0,1-2.89-2.4,10,10,0,0,0-1-1.49,1.91,1.91,0,0,0-.61-.48,2.79,2.79,0,0,0-2.12.09,3.94,3.94,0,0,1-1,.24l-.3,0c-2.13.08-3.86-1.58-4.84-3.51-1.31-2.6-1.07-5.7-.24-8.42a8.25,8.25,0,0,1,1.39-2.76,8.54,8.54,0,0,1,2.76-2.11,13.7,13.7,0,0,1,10.09-1.43c3.34,1,6.2,3.95,6.41,7.43.07,1-.1,2.08,0,3.12a3.05,3.05,0,0,0,1.34,2.45C158.39,145.36,157.63,146.45,157.09,147Z"/><path class="cls-32" d="M146.55,152.82a4.89,4.89,0,0,0,2,2.7l.44-1.46a6,6,0,0,0,2.57.15,5.07,5.07,0,0,0,1.11-.32,7.44,7.44,0,0,1-3.52-1.06,7.31,7.31,0,0,1-2.69-3.17c-.08-.17-.17-.33-.24-.48,0,.11,0,.22,0,.36A11.27,11.27,0,0,0,146.55,152.82Z"/><path class="cls-25" d="M133.54,138.21a10.73,10.73,0,0,1,6.4-6.71,19.34,19.34,0,0,1,10-.67c.84,4.23,2.66,10.33-1.11,13-3.55,2.47.08,10.4-11.22,6.68a11.21,11.21,0,0,1-3.81-5.76A11.35,11.35,0,0,1,133.54,138.21Z"/><path class="cls-24" d="M148.45,141.84a2.26,2.26,0,0,0-3.43.76,3.39,3.39,0,0,0-.08,2.45,6.59,6.59,0,0,0,1.41,2.58,3.41,3.41,0,0,0,1.46,1.06,1.77,1.77,0,0,0,1.72-.32,2.5,2.5,0,0,0,.53-1.93,10.85,10.85,0,0,0-.47-2.7A3.82,3.82,0,0,0,148.45,141.84Z"/><path class="cls-33" d="M148.48,158.25l-2.25.89c-1.44.71-1.93.22-3.49-.14l-5.6-1.46a20.63,20.63,0,0,1,2.21-3.74C141.26,151.6,145.57,155.42,148.48,158.25Z"/><path class="cls-19" d="M137.42,250.29l4,0c3.37-15.66,3.62-32.21.08-33.36h-4C141.14,218.29,140.15,235.13,137.42,250.29Z"/><path class="cls-8" d="M141.54,217h-4.13c-2,.35-2.41,2.56-2.83,4.91l3.37,1C138,220,139.31,217.39,141.54,217Z"/><path class="cls-19" d="M122.26,250.35h-4c-3.49-15.63-3.87-32.18-.34-33.36l4,0C118.29,218.38,119.42,235.21,122.26,250.35Z"/><path class="cls-8" d="M117.88,217l4.13,0c2,.33,2.43,2.54,2.87,4.89l-3.36,1C121.41,220.07,120.12,217.46,117.88,217Z"/><path class="cls-19" d="M122.65,237.88l.06,15.26a2,2,0,0,1-2,2.06l-4.81,0a2.06,2.06,0,0,1-2-1.84,70,70,0,0,1-.09-15.7,2.06,2.06,0,0,1,1.63-1.78,2.71,2.71,0,0,1,.4,0l4.85,0A2,2,0,0,1,122.65,237.88Z"/><path class="cls-4" d="M115.28,244.58l-.51,0a39.81,39.81,0,0,1,.58-8.71,2.71,2.71,0,0,1,.4,0h.12A39.08,39.08,0,0,0,115.28,244.58Z"/><path class="cls-19" d="M136.93,237.83l.06,15.26a2.06,2.06,0,0,0,2.06,2l4.81,0a2.06,2.06,0,0,0,2-1.85,69.79,69.79,0,0,0,0-15.7,2.07,2.07,0,0,0-1.65-1.77,2.71,2.71,0,0,0-.4,0l-4.85,0A2,2,0,0,0,136.93,237.83Z"/><path class="cls-4" d="M144.36,244.47l.5,0a39.64,39.64,0,0,0-.64-8.7,2.71,2.71,0,0,0-.4,0h-.12A39.45,39.45,0,0,1,144.36,244.47Z"/><path class="cls-4" d="M144.44,247.44h.45a.42.42,0,0,0,.42-.47l-.28-2.28h-.76L144,247A.42.42,0,0,0,144.44,247.44Z"/><rect class="cls-4" x="143.96" y="243.51" width="1.39" height="1.31" rx="0.32" ry="0.32" transform="translate(-0.9 0.54) rotate(-0.21)"/><path class="cls-4" d="M115.23,247.55h-.46a.41.41,0,0,1-.42-.46l.26-2.28h.76l.27,2.29A.42.42,0,0,1,115.23,247.55Z"/><rect class="cls-4" x="114.29" y="243.62" width="1.39" height="1.31" rx="0.32" ry="0.32" transform="translate(-1.02 0.48) rotate(-0.24)"/><path class="cls-19" d="M126.12,220a7,7,0,0,1,7.21,0,.77.77,0,0,0,1-.12.73.73,0,0,0-.32-1,8.37,8.37,0,0,0-8.6,0,.72.72,0,0,0-.32,1A.77.77,0,0,0,126.12,220Z"/><path class="cls-9" d="M133.61,222.59a.28.28,0,0,0,.28.27.27.27,0,0,0,.27-.27v-3a.28.28,0,0,0-.55,0Z"/><path class="cls-9" d="M125.34,222.62a.27.27,0,0,0,.54,0v-3a.27.27,0,0,0-.27-.27.28.28,0,0,0-.28.27Z"/><path class="cls-8" d="M117.51,252.74a3,3,0,0,0,3,2.46l18.72-.07a3,3,0,0,0,3-2.49,57.78,57.78,0,0,0,.71-13.6A66.3,66.3,0,0,0,140,223.63a3,3,0,0,0-2.25-2.08,34.32,34.32,0,0,0-16.12.07,3,3,0,0,0-2.23,2.09,66.44,66.44,0,0,0-2.75,15.44A58.26,58.26,0,0,0,117.51,252.74Z"/><path class="cls-4" d="M118.87,234a72.8,72.8,0,0,1,2.26-9.81,1.29,1.29,0,0,1,.93-.88,31.89,31.89,0,0,1,15.35-.06,1.27,1.27,0,0,1,.94.87,67.24,67.24,0,0,1,2.24,9.8l.5-.08a67.22,67.22,0,0,0-2.26-9.87,1.8,1.8,0,0,0-1.31-1.22,32.42,32.42,0,0,0-15.57.07,1.76,1.76,0,0,0-1.3,1.23,72,72,0,0,0-2.28,9.88Z"/><path class="cls-6" d="M121.9,226.13a2.59,2.59,0,0,1,2-1.88,32.51,32.51,0,0,1,5.86-.59,30.66,30.66,0,0,1,5.81.54,2.61,2.61,0,0,1,2,1.87,63.09,63.09,0,0,1,2.26,13l-20.1.08A63.1,63.1,0,0,1,121.9,226.13Z"/><path class="cls-30" d="M116.69,239.15h3.06l20.1-.08,3.05,0a57.78,57.78,0,0,1-.71,13.6,3,3,0,0,1-3,2.49l-18.72.07a3,3,0,0,1-3-2.46A58.26,58.26,0,0,1,116.69,239.15Z"/><path class="cls-8" d="M139.36,251.15a54.37,54.37,0,0,0,.63-7.92,1.14,1.14,0,0,0-1.14-1.13l-18.08.07a1.13,1.13,0,0,0-1.13,1.14,54.21,54.21,0,0,0,.69,7.91,1.13,1.13,0,0,0,1.13.94l16.79-.06A1.14,1.14,0,0,0,139.36,251.15Z"/><path class="cls-4" d="M127.13,228.76a2.63,2.63,0,1,0,5.25,0,2.63,2.63,0,0,0-5.25,0Z"/><path class="cls-8" d="M128,228.76a1.77,1.77,0,1,0,3.53,0,1.77,1.77,0,0,0-3.53,0Z"/><path class="cls-4" d="M140.52,236.82H141a.41.41,0,0,0,.41-.46l-.27-2.29h-.76l-.25,2.28A.41.41,0,0,0,140.52,236.82Z"/><rect class="cls-4" x="140.04" y="232.89" width="1.39" height="1.31" rx="0.32" ry="0.32" transform="translate(-0.94 0.57) rotate(-0.23)"/><rect class="cls-4" x="120.77" y="243.97" width="18.09" height="0.51" transform="translate(-0.96 0.51) rotate(-0.22)"/><rect class="cls-4" x="117.94" y="233.8" width="1.37" height="0.72" transform="translate(-0.91 0.46) rotate(-0.22)"/><rect class="cls-4" x="120.61" y="243.57" width="0.72" height="1.37" transform="translate(-0.93 0.46) rotate(-0.22)"/><path class="cls-4" d="M138.16,247.42h.46A.42.42,0,0,0,139,247l-.27-2.28H138l-.26,2.29A.43.43,0,0,0,138.16,247.42Z"/><rect class="cls-4" x="137.68" y="243.49" width="1.39" height="1.31" rx="0.32" ry="0.32" transform="translate(-0.98 0.56) rotate(-0.23)"/><path class="cls-28" d="M140,169.14c.3-8.09,10.91-8,10.66,2.82l-.16,9.77-.72.09-.21,3.06,1.14,11.78c1.36,2.44,4.55,2.73,4.46,3.26-.5,1.6-1.07,1.2-3.92.74-.1,4-1,8.1-2.55,6.53.11,1.5-1.57,1.46-1.66.38-.42.47-1.47.36-1.46-1.06-.94-.34-.5-1.85-.5-1.85.41-2.39-.45-3.7.75-6.57,0,0-4.58-11.27-4.68-11.53,0-.07-.12-1.54-.23-3.64l-.45.05C140,177.3,140,169.14,140,169.14Z"/><path class="cls-24" d="M140.82,170.27h10a9.09,9.09,0,0,1,.26,1.67v12.62l2,12.27c1.53,2.54,4.75,2.84,4.7,3.39-.39,1.67-1,1.25-3.88.77.19,4.18-.46,8.44-2.08,6.8.21,1.57-1.47,1.52-1.64.39-.39.49-1.45.38-1.53-1.1-1-.35-.63-1.92-.63-1.92.24-2.49-.71-3.86.28-6.84,0,0-5.37-11.74-5.49-12S141.54,176.5,140.82,170.27Z"/><path class="cls-6" d="M140.36,168.17c-.27-8.42,10.35-8.3,10.86,2.93l.53,10.18-9.94,1.29C141,176.67,140.36,168.17,140.36,168.17Z"/><path class="cls-25" d="M146.46,157.05c-.62-2.32-3.23-5.8-2.63-8.35.54-2.33-.61.53-1,.13a1.82,1.82,0,0,0-1.72-.38,2.33,2.33,0,0,0-1.37,1.15,3,3,0,0,1,.76,3.32c-.44,1.13-1.48,2.24-1.65,3.44-.58,4.1,5.66,7.71,2.88,11.42C146,164,147.1,159.44,146.46,157.05Z"/><path class="cls-6" d="M144,151.58a.51.51,0,0,0,.38-.62l-.2-.8a.56.56,0,0,0-.3-.37.55.55,0,0,0-.47,0,18.93,18.93,0,0,1-2.83,1,.54.54,0,0,0-.36.53l0,.58a.45.45,0,0,0,.17.34.47.47,0,0,0,.38.08A9.78,9.78,0,0,0,144,151.58Z"/><path class="cls-24" d="M462.83,113.83c-1.19,1.6-2.3,3.39-3.53,4.92a11.13,11.13,0,0,1-3.28,3,5.88,5.88,0,0,1-.85.39s-3.9.7-7.45,1.05a32.85,32.85,0,0,1-3.36.19c-.48.63-.87,1-.79,1.77,0,.26.14.45.17.7s.15.6-.05.75a.84.84,0,0,1-.95-.16c-.83-.68-.66-1.54-1.41-2.3a3.12,3.12,0,0,0-2.32-.78c-.84,0-.86-.09-1.7,0A5.42,5.42,0,0,1,435,123c-.28-.1-.61-.4-.48-.67A.71.71,0,0,1,435,122c2.31-.57,3.81-.92,6.11-1.35l.27,0a11.9,11.9,0,0,0,3-.74c1-.45,2-.95,3-1.47a24.61,24.61,0,0,0,4.76-3.13l.11-.09c2.74-2.5,5.61-7.83,6.72-8.41Z"/><path class="cls-24" d="M435.24,122.16c-.23-.09-.48-.29-.42-.53a.43.43,0,0,1,.24-.27,1.53,1.53,0,0,1,.37-.08l7.49-.84a2,2,0,0,1-1,.82,6.23,6.23,0,0,1-1.29.31l-4,.66a3.81,3.81,0,0,1-.67.07A1.76,1.76,0,0,1,435.24,122.16Z"/><path class="cls-24" d="M462.83,113.83c-1.19,1.6-2.3,3.39-3.53,4.92a11.13,11.13,0,0,1-3.28,3,5.88,5.88,0,0,1-.85.39s-3.9.7-7.45,1.05a32.85,32.85,0,0,1-3.36.19c-.48.63-.87,1-.79,1.77,0,.26.14.45.17.7s.15.6-.05.75a.84.84,0,0,1-.95-.16c-.83-.68-.66-1.54-1.41-2.3a3.12,3.12,0,0,0-2.32-.78c-.84,0-.86-.09-1.7,0A5.42,5.42,0,0,1,435,123c-.28-.1-.61-.4-.48-.67A.71.71,0,0,1,435,122c2.31-.57,3.81-.92,6.11-1.35l.27,0a11.9,11.9,0,0,0,3-.74c1-.45,2-.95,3-1.47a24.61,24.61,0,0,0,4.76-3.13l.11-.09c2.74-2.5,5.61-7.83,6.72-8.41Z"/><path class="cls-34" d="M435.24,122.16c-.23-.09-.48-.29-.42-.53a.43.43,0,0,1,.24-.27,1.53,1.53,0,0,1,.37-.08l7.49-.84a2,2,0,0,1-1,.82,6.23,6.23,0,0,1-1.29.31l-4,.66a3.81,3.81,0,0,1-.67.07A1.76,1.76,0,0,1,435.24,122.16Z"/><path class="cls-8" d="M452,115.17l.07.11,3.16,5.14.8,1.29.13.22a10.61,10.61,0,0,0,3.18-3c1.22-1.61,2.29-3.5,3.5-5.12l-3.56-7.35C457.79,106.49,453.42,113.77,452,115.17Z"/><path class="cls-32" d="M447.72,123.14c3.54-.35,7.45-1,7.45-1a5,5,0,0,0,.85-.39l-.8-1.29a3.65,3.65,0,0,1-.45.32A31.8,31.8,0,0,1,447.72,123.14Z"/><path class="cls-20" d="M455.22,120.42l.8,1.29.13.22a10.61,10.61,0,0,0,3.18-3,1.55,1.55,0,0,0,0-.21c-.28-2.34-.41-4.48-.55-6.32C457.31,115.68,457.21,118.78,455.22,120.42Z"/><path class="cls-8" d="M477.83,121.36c-.43.58-.86,1.13-1.3,1.66l-.16.18c-3.07,3.6-6.5,5.86-10.53,6a12.57,12.57,0,0,1-4.29-.64c-3-7.33-5.13-14.63-2.66-21.77l7.18-4c2.32,1,3.06.17,8.12,3C477.48,107.62,475.76,118.36,477.83,121.36Z"/><path class="cls-24" d="M466.19,102.91c.75,4.27-6.38,9.26-7.08,4.17l-1.14-1.6-.74-1-.26-.37c.14-.34.28-.67.43-1,1.35-3,3.07-5,5.63-4.83L464,99.6Z"/><path class="cls-24" d="M467.9,95.68c-.63,1.92-2,3.69-3.95,3.92a3.91,3.91,0,0,1-1.27,0,2.55,2.55,0,0,0-2,.22,1.69,1.69,0,0,0-.5.53,9.39,9.39,0,0,0-.68,1.51,5.82,5.82,0,0,1-2.31,2.62,5.68,5.68,0,0,1-3,.85,5.31,5.31,0,0,1-1.72-.29,5.9,5.9,0,0,1-3.55-3.28c-.36-.89-.11-1.72-.89-2.28-.58-.41-1.43-1.31-.41-2.23a2.81,2.81,0,0,0,.89-2.45c-.08-1-.38-1.9-.47-2.87-.3-3.23,1.9-6.36,4.84-7.74a12.75,12.75,0,0,1,9.49-.14,8.24,8.24,0,0,1,2.85,1.55,7.76,7.76,0,0,1,1.67,2.34A10.68,10.68,0,0,1,467.9,95.68Z"/><path d="M469.62,93.3c0-8.68-7.66-13.64-13.5-11.62,0,0-1,13.93,3.46,12.65a4,4,0,0,1,2,0,10.27,10.27,0,0,0-.9,2.78,8.17,8.17,0,0,0,.48,3.81c1.69,2.91,3.85,2.22,4.71,1.41C468.18,100.17,469.62,98.52,469.62,93.3Z"/><path class="cls-24" d="M459.07,94a2.12,2.12,0,0,1,3.27.2,3.15,3.15,0,0,1,.43,2.25,6.13,6.13,0,0,1-.93,2.58,3.09,3.09,0,0,1-1.2,1.18,1.62,1.62,0,0,1-1.62,0,2.31,2.31,0,0,1-.76-1.69,10,10,0,0,1,.05-2.56A3.51,3.51,0,0,1,459.07,94Z"/><path class="cls-32" d="M459.81,103.1a7.47,7.47,0,0,1-1.84,2.38l-.74-1a5.68,5.68,0,0,1-3,.85,5.31,5.31,0,0,1-1.72-.29,9.19,9.19,0,0,0,3.83-1.2,11.26,11.26,0,0,0,1.08-.72,8.31,8.31,0,0,0,2.79-3.67c0,.32,0,.61,0,.9A4.65,4.65,0,0,1,459.81,103.1Z"/><path class="cls-24" d="M465.8,149.21h-9.75l2.65,14.24c-2.18,2.4-6.47,2.63-6.26,7.11h14.64a12.82,12.82,0,0,0-.76-7.11A37,37,0,0,0,465.8,149.21Z"/><path class="cls-6" d="M467.29,170.56H452.16a4.5,4.5,0,0,1,1-3.24,9.2,9.2,0,0,1,2.44-1.9l1.08-.65.47-.3a7.63,7.63,0,0,0,.71-.52.43.43,0,0,0,.1-.09.92.92,0,0,0,.33-.73c0-.14,0-.3,0-.5,0-.67,1.86-1.35,2.56.44,1.57,4,4.22.7,5.07-.75.39-.69.89-.78.71,0a4.88,4.88,0,0,0,.09,1.56c.07.18.15.36.2.54a10.26,10.26,0,0,1,.61,3.05A13.17,13.17,0,0,1,467.29,170.56Z"/><path class="cls-4" d="M459,166.9a.35.35,0,0,1-.19.06.32.32,0,0,1-.28-.16,3.09,3.09,0,0,0-2.9-1.38,2.16,2.16,0,0,1,1.08-.65,3.61,3.61,0,0,1,2.45,1.65A.38.38,0,0,1,459,166.9Z"/><path class="cls-4" d="M460.13,166a.39.39,0,0,1-.2.06.3.3,0,0,1-.27-.16,3.06,3.06,0,0,0-2.51-1.39.94.94,0,0,1,.8-.61,3.53,3.53,0,0,1,2.33,1.62A.37.37,0,0,1,460.13,166Z"/><path class="cls-8" d="M472.5,134.53a68.72,68.72,0,0,1-7.72,10.91c1.79,4.45,3.11,10.15,2.49,14.05a7.46,7.46,0,0,1-.73,2.35c-2.26.9-4.83-.78-8.14,0-1.86-1.76-2.29-9.61-3-16.22-1.21-4.34,4.64-14,6.08-17,4.83,0,10.45-3,16.37-7.12l-4.1,7.19h.76A16.56,16.56,0,0,1,472.5,134.53Z"/><path class="cls-35" d="M473.84,128.12l-.11.54-1.23,5.87a68.72,68.72,0,0,1-7.72,10.91c1.79,4.45,3.11,10.15,2.49,14.05,0,0-4.76-15.57-4.76-15.57,2.13-4.63,2.31-10.29,1-13.44,3.17,2,6.73-.08,9.48-1.82Z"/><path class="cls-24" d="M492.32,153.33a36.44,36.44,0,0,0-9.33-9.41l-7.72,6.29,11.52,8.36c.08,3.24-2.88,6.37.36,9.47L497.77,158A12.81,12.81,0,0,0,492.32,153.33Z"/><path class="cls-6" d="M497.92,157.83l-11,10.41a4.55,4.55,0,0,1-1.51-3,9.23,9.23,0,0,1,.46-3c.11-.41.24-.82.34-1.22,0-.19.09-.36.14-.54s.11-.58.15-.86c0-.05,0-.1,0-.14a.92.92,0,0,0-.27-.76c-.09-.11-.2-.22-.34-.36-.47-.48.42-2.27,2.16-1.45,3.9,1.84,3.55-2.39,3.16-4-.18-.77.12-1.18.52-.49a4.94,4.94,0,0,0,1.14,1.07,4.2,4.2,0,0,1,.52.26,10.37,10.37,0,0,1,2.54,1.79A12.75,12.75,0,0,1,497.92,157.83Z"/><path class="cls-4" d="M489.36,160.9a.4.4,0,0,1-.1.18.34.34,0,0,1-.31.07,3.08,3.08,0,0,0-3.06,1,2.16,2.16,0,0,1,.34-1.22,3.63,3.63,0,0,1,2.91-.49A.39.39,0,0,1,489.36,160.9Z"/><path class="cls-4" d="M489.56,159.42a.55.55,0,0,1-.1.17.3.3,0,0,1-.31.07,3.08,3.08,0,0,0-2.78.72.91.91,0,0,1,.17-1,3.53,3.53,0,0,1,2.8-.43A.38.38,0,0,1,489.56,159.42Z"/><path class="cls-8" d="M465.83,129.14c1,3.28,2.44,16.47,6.29,18.78,5.08,4.3,10.79,9.7,13.34,9.69,1.88-2.84,4.9-3.39,5.92-5.59a6.46,6.46,0,0,0-.58-1.41c-1.92-3.51-7.26-7.13-12-9.29l.75-7.06a6.88,6.88,0,0,0,.57-1,7.23,7.23,0,0,0,.45-1.26,8.06,8.06,0,0,0,.18-.88,9.55,9.55,0,0,0,.11-1.5,12.68,12.68,0,0,0-1.08-5,13.52,13.52,0,0,0-2-3.31l-1.92,1.24Z"/><path class="cls-20" d="M467.33,111.78c4.6,2.37,3.24,6.31,3.95,11.36l6.55-1.78c-2.07-3,.77-5.44-.68-8.93Z"/><path class="cls-35" d="M476.37,123.2a8.24,8.24,0,0,1,.65,10.12,15.09,15.09,0,0,1-1.08,10.49c4-.1,9.32,3,14.86,6.8-1.92-3.51-7.26-7.13-12-9.29l.75-7.06a6.88,6.88,0,0,0,.57-1,7.23,7.23,0,0,0,.45-1.26,8.06,8.06,0,0,0,.18-.88,10.1,10.1,0,0,0,.1-1.45,12.54,12.54,0,0,0-1.07-5,13.52,13.52,0,0,0-2-3.31l-1.92,1.24a.76.76,0,0,1,0,.16A3.61,3.61,0,0,1,476.37,123.2Z"/><path d="M460.5,81.39a11.41,11.41,0,0,0-11.3,2.32c-2.09,1.68-3.78,5-6.65,5.84,4.38,1.49,9.91,1.29,13.28-1.9,1.18-1.12,3.09-3.7,5.45-3C460.31,83.1,462.23,81.86,460.5,81.39Z"/><path d="M466.76,84.39a3.14,3.14,0,0,1,1.85,2.68c-.77-1.28-2.74-1.36-3.58-2.59s-.24-3-1.15-4.14a3.71,3.71,0,0,1,1.71,2.7c.32-.65.64-1.31,1-2a3,3,0,0,1-.17,2.57,2.75,2.75,0,0,1,2.16.06Z"/><path d="M456,89.09a3.41,3.41,0,0,0,1.24-2,1.68,1.68,0,0,0-1.14-1.87,15.92,15.92,0,0,1-6.52,6.61C451.88,91.27,454.26,90.65,456,89.09Z"/><path class="cls-14" d="M532.89,47.6H425.52V15.5a9.41,9.41,0,0,1,9.41-9.41h88.55a9.41,9.41,0,0,1,9.41,9.41Z"/><rect class="cls-20" x="453.2" y="6.09" width="48.7" height="41.18"/><path class="cls-14" d="M499.69,18.26H455.41V3.6A3.6,3.6,0,0,1,459,0h37.08a3.6,3.6,0,0,1,3.6,3.6Z"/><polygon class="cls-36" points="446.28 26.84 425.52 26.84 425.52 21.86 446.28 21.86 448.12 24.45 446.28 26.84"/><path class="cls-4" d="M439,27.14h-5.68V21.56H439Zm-5.08-.6h4.47V22.16h-4.47Z"/><polygon class="cls-36" points="512.14 26.84 532.89 26.84 532.89 21.86 512.14 21.86 510.29 24.45 512.14 26.84"/><path class="cls-4" d="M525.08,27.14H519.4V21.56h5.68Zm-5.08-.6h4.47V22.16H520Z"/><polygon class="cls-36" points="467.63 20.75 467.63 0 462.65 0 462.65 20.75 465.24 22.6 467.63 20.75"/><path class="cls-4" d="M467.93,13.49h-5.58V7.81h5.58Zm-5-.6h4.38V8.42H463Z"/><polygon class="cls-36" points="491.98 20.75 491.98 0 487 0 487 20.75 489.59 22.6 491.98 20.75"/><path class="cls-4" d="M492.29,13.49H486.7V7.81h5.59Zm-5-.6h4.38V8.42H487.3Z"/><rect class="cls-20" x="425.52" y="35.7" width="107.37" height="11.9"/><path class="cls-19" d="M545,46.88A14.86,14.86,0,1,1,555,28.43,14.86,14.86,0,0,1,545,46.88Z"/><path class="cls-8" d="M550.37,45.35a16.23,16.23,0,0,0,5.85-8h0a16.76,16.76,0,0,0,.87-6.3,15.33,15.33,0,0,0-.6-3.42,16.76,16.76,0,0,0-1.07-2.71,15.42,15.42,0,0,0-4.76-5.62,15.81,15.81,0,0,0-6.77-2.74,14.29,14.29,0,0,0-5.74.3,15,15,0,0,0-5.08,2.43,14.52,14.52,0,0,0-3.72,4,13.71,13.71,0,0,0-2,5.24,13.93,13.93,0,0,0,1.38,8.35,13.07,13.07,0,0,0,6.15,5.94,12.68,12.68,0,0,0,7.62,1,12.5,12.5,0,0,0,7.22-4.12,11.41,11.41,0,0,0,2.74-6.18,11.66,11.66,0,0,0-.37-4.66,11.07,11.07,0,0,0-3.5-5.34A10.51,10.51,0,0,0,542.31,21a10.38,10.38,0,0,0-6.44,1.87A9.57,9.57,0,0,0,532,29.17,8.87,8.87,0,0,0,533.58,36a8.57,8.57,0,0,0,3.64,2.82,7.88,7.88,0,0,0,4.66.42h0a7.73,7.73,0,0,0,5.68-4.89h0a6.57,6.57,0,0,0-2.21-7.46h0a5.4,5.4,0,0,0-4.58-.94A5.65,5.65,0,0,0,537,29h0a4.21,4.21,0,0,0-.35,2.45,3.94,3.94,0,0,0,1.14,2.22,3.7,3.7,0,0,0,4.23.71l0,0A2.13,2.13,0,0,0,543.25,32h0a2.66,2.66,0,0,0-1-1.87,2,2,0,0,0-1.52-.32,1.58,1.58,0,0,0-1,.72.7.7,0,0,1,.08-.23,2.57,2.57,0,0,1,1.71-1.36,2.32,2.32,0,0,1,2,.39,3.44,3.44,0,0,1,1.16,4,4.59,4.59,0,0,1-3.43,2.89,5.21,5.21,0,0,1-5.13-2.07h0a5.75,5.75,0,0,1-1-4.43,6.37,6.37,0,0,1,2.62-4.26h0a7.31,7.31,0,0,1,9,.47h0a7.94,7.94,0,0,1,2.84,5.75A8.58,8.58,0,0,1,547.08,38a9.38,9.38,0,0,1-10.84,2,10.43,10.43,0,0,1-5.76-11,10.91,10.91,0,0,1,4.43-7.17,11.48,11.48,0,0,1,8.51-2.16h0a12.2,12.2,0,0,1,9.22,6.67h0a12.78,12.78,0,0,1,.63,10.05,13.24,13.24,0,0,1-12.3,9h0a13.72,13.72,0,0,1-10.36-3.77,17.21,17.21,0,0,1-3.47-5.14,3.39,3.39,0,0,0-4-1.81h0a.87.87,0,0,0,.07.17A31.32,31.32,0,0,0,524.66,39a17.61,17.61,0,0,0,3.85,5h0a17.29,17.29,0,0,0,12.59,4.57A16.86,16.86,0,0,0,550.37,45.35Z"/><circle class="cls-37" cx="514.3" cy="32.35" r="14.86" transform="translate(0.82 75.88) rotate(-8.44)"/><path class="cls-6" d="M529.63,36.74a16.21,16.21,0,0,0-.14-9.91h0a16.69,16.69,0,0,0-3.1-5.55,15,15,0,0,0-2.53-2.37,16.38,16.38,0,0,0-2.49-1.52,15.23,15.23,0,0,0-7.18-1.62,15.56,15.56,0,0,0-7.05,1.88,14.19,14.19,0,0,0-4.41,3.69,15.11,15.11,0,0,0-2.6,5,14.44,14.44,0,0,0-.57,5.41,13.49,13.49,0,0,0,1.59,5.36,13.9,13.9,0,0,0,6.13,5.84A13.05,13.05,0,0,0,515.76,44a12.8,12.8,0,0,0,6.68-3.8,12.45,12.45,0,0,0,3.28-7.64A11.44,11.44,0,0,0,524.2,26a11.76,11.76,0,0,0-3.1-3.49,11.08,11.08,0,0,0-6-2.16,10.42,10.42,0,0,0-10.59,7.17,9.55,9.55,0,0,0,.68,7.41,8.86,8.86,0,0,0,5.39,4.45,8.65,8.65,0,0,0,4.6,0,7.87,7.87,0,0,0,4-2.45h0a7.73,7.73,0,0,0,1.6-7.32v0A6.56,6.56,0,0,0,514.49,25h0a5.45,5.45,0,0,0-4.22,2,5.68,5.68,0,0,0-1.2,4.71h0a4.25,4.25,0,0,0,1.2,2.17A4,4,0,0,0,512.51,35a3.68,3.68,0,0,0,3.8-2l0,0a2.13,2.13,0,0,0-.42-2.59h0a2.65,2.65,0,0,0-1.9-.91,2,2,0,0,0-1.41.66,1.57,1.57,0,0,0-.4,1.21,1.69,1.69,0,0,1-.08-.24,2.62,2.62,0,0,1,.56-2.12,2.34,2.34,0,0,1,1.8-.87,3.45,3.45,0,0,1,3.31,2.47,4.58,4.58,0,0,1-1,4.37,5.19,5.19,0,0,1-5.34,1.43h0a5.74,5.74,0,0,1-3.5-2.91,6.39,6.39,0,0,1-.47-5h0a7.31,7.31,0,0,1,7.44-5h0a8,8,0,0,1,5.72,2.88,8.52,8.52,0,0,1,1.93,6.53,9.39,9.39,0,0,1-7.46,8.11,10.44,10.44,0,0,1-11.22-5.32,10.94,10.94,0,0,1-.78-8.4,11.51,11.51,0,0,1,5.5-6.84h0A12.17,12.17,0,0,1,520,20.16h0a12.75,12.75,0,0,1,6.55,7.64,13.27,13.27,0,0,1-4.38,14.63h0a13.72,13.72,0,0,1-10.55,3.21,17.16,17.16,0,0,1-5.86-2,3.39,3.39,0,0,0-4.31,1v0l.15.09a31.73,31.73,0,0,0,3.67,2.34,17.75,17.75,0,0,0,6.08,1.67h0a17.25,17.25,0,0,0,12.8-3.91A17,17,0,0,0,529.63,36.74Z"/><path class="cls-8" d="M394.87,46.76V33.14a7.32,7.32,0,0,1,4.4-6.71l5.06-2.18a14.37,14.37,0,0,1,8.31-1l13,2.36a14.52,14.52,0,0,0,4.51.1l17.61-2.39a14.7,14.7,0,0,1,3.69,0l20.37,2.48a14.12,14.12,0,0,0,3.84-.05L491,23.53a15.29,15.29,0,0,1,5.68.23l4.42,1a7.3,7.3,0,0,1,5.68,7.06l.15,16.1Z"/><polygon class="cls-20" points="394.87 36.67 394.87 46.76 506.95 47.93 506.87 39.64 394.87 36.67"/><path d="M561.3,53H393.66a3.11,3.11,0,0,1,0-6.21H561.3a3.11,3.11,0,1,1,0,6.21Z"/><path d="M410,65.17a2.33,2.33,0,0,1-2.33-2.33V50.26a2.33,2.33,0,1,1,4.65,0V62.84A2.32,2.32,0,0,1,410,65.17Z"/><path d="M455,65.17a2.32,2.32,0,0,1-2.32-2.33V50.26a2.33,2.33,0,1,1,4.65,0V62.84A2.33,2.33,0,0,1,455,65.17Z"/><path d="M500,65.17a2.33,2.33,0,0,1-2.33-2.33V50.26a2.33,2.33,0,1,1,4.66,0V62.84A2.33,2.33,0,0,1,500,65.17Z"/><path d="M545,65.17a2.33,2.33,0,0,1-2.33-2.33V50.26a2.33,2.33,0,1,1,4.66,0V62.84A2.33,2.33,0,0,1,545,65.17Z"/><path class="cls-6" d="M790,185.46a15.72,15.72,0,0,0-.62-2.61c-.07-.23-.15-.46-.24-.71l-10.3-26.39a23.65,23.65,0,0,0-1.68-3.38,17.6,17.6,0,0,0-1.35-2,22.9,22.9,0,0,0-2.94-3.13,1.21,1.21,0,0,1-.2-.14c-.59-.49-1.2-1-1.85-1.41-.17-.13-.38-.23-.55-.34-.54-.33-1.09-.69-1.66-1-.4-.21-.82-.36-1.24-.53s-.73-.36-1.13-.5a17,17,0,0,0-2.52-.76L653,115.17a22.71,22.71,0,0,1-5.71-3.23L599.48,71c-6.8-6.25-11.44-7.3-22.38-9-60.69-4.69-134.67-4.5-195.76,0A35.64,35.64,0,0,0,350.92,79s-31.24,52.05-31.36,52.63l-.7,3-4,17.67-5.08,22.24-.14.58a22.35,22.35,0,0,0-.53,4.14,23.48,23.48,0,0,0,.55,6.46l-1,12.31a25,25,0,0,0,12.89,16.56,21.76,21.76,0,0,0,2.67,1.16l26,10.91H761.45l10.83-1.4a15.05,15.05,0,0,0,12.55-10.67c.13-.44.25-.88.34-1.34l.31-1.56.28-1.36,2.91-14.24,1.16-5.7a13.57,13.57,0,0,0,.25-2A13.25,13.25,0,0,0,790,185.46Zm-280.2-67.35A2.83,2.83,0,0,1,507.1,121a1,1,0,0,1-.24,0h-.26l-2.25,0-5.45-.13-1,0-3.17-.07-16.35-.37-64.5-1.44a2.87,2.87,0,0,1-2.64-3.82c7-19.83,16.26-38.22,23.53-43.19a6.43,6.43,0,0,1,3.35-1.31c6.61-.29,12.43-.44,18.88-.44,3.42,0,6.76,0,10.27.07,4,0,8.23.09,13.17.09,3.33,0,6.7,0,10.05,0,6.24,0,10,.18,16.2.26,2.46,0,3.06.83,3.06,3.35Zm123.75,5.68-104.83-2.33a3.27,3.27,0,0,1-3.2-3.28V73.39a2.28,2.28,0,0,1,2.36-2.3c16.88.57,33,1.43,47.88,2.57,10,1.59,11.69,2.22,15.77,6l.21.2,40.17,34.43a16.52,16.52,0,0,1,4.25,5.64A2.78,2.78,0,0,1,633.52,123.79Z"/><path d="M765.15,162.17l6.12,14.9c1.12,2.77,4.43,5.05,8.41,5.81a14.13,14.13,0,0,0,2.82.29l5.51,0a3,3,0,0,0,1.34-.3c-.07-.23-.15-.47-.24-.71l-10.3-26.39a23.65,23.65,0,0,0-1.68-3.38,18.91,18.91,0,0,0-1.35-2h-1.42c-3.79,0-6.93,1.45-8.63,4A8.21,8.21,0,0,0,765.15,162.17Z"/><path class="cls-14" d="M767,161.43l.12.27,6,14.62c.92,2.24,3.78,4,7,4.63a11.77,11.77,0,0,0,2.45.25H788c2,0,2.09-3.86-.57-11.19-2.12-5.85-3.86-9-6.14-14.38a5.36,5.36,0,0,0-4.93-3.25h-2C768.23,152.37,765,156.68,767,161.43Z"/><path d="M321.5,214.66a25.55,25.55,0,0,0,2.68,1.17l26,10.91H761.46l10.81-1.4a15.09,15.09,0,0,0,12.56-10.68Z"/><path d="M751,226.74h10.43l10.81-1.4a15.09,15.09,0,0,0,12.56-10.68c.14-.44.24-.88.34-1.34l.31-1.57.29-1.35,2.89-14.24,1.17-5.7a19.53,19.53,0,0,0,.26-2H778a21.23,21.23,0,0,0-20.4,15.37Z"/><path d="M308.15,195.53c.46,7.5.46,10,5.25,14.45,5.67,5.23,36.81,16.76,36.81,16.76L346.6,197.2a23.76,23.76,0,0,0-23-17.87H309.07C309,181.49,308.15,195.53,308.15,195.53Z"/><path class="cls-14" d="M774.75,202.15c-.54,3,.52,5.46,2.38,5.46s3.79-2.45,4.33-5.46-.52-5.46-2.37-5.46S775.3,199.13,774.75,202.15Z"/><path class="cls-14" d="M320.13,193.86c.46,4.3-.69,7.76-2.56,7.72s-3.77-3.56-4.23-7.86S314,186,315.91,186,319.67,189.55,320.13,193.86Z"/><path d="M309.75,174.61h1.65a5.13,5.13,0,0,0,5-3.92L323.57,141a5.11,5.11,0,0,0-4.71-6.31Z"/><path class="cls-33" d="M308.15,158.49l8.74,1.76-2.42,10a3.16,3.16,0,0,1-3.07,2.42h-.09a5.18,5.18,0,0,1-5-6.4Z"/><path class="cls-37" d="M312.77,139.46a3.68,3.68,0,0,1,3.58-2.81h2.25a3.16,3.16,0,0,1,3.07,3.9l-4.78,19.7-8.74-1.76Z"/><path d="M649.8,226.74h98.68l-1.14-12.08-.73-7.77a32,32,0,0,0-31.85-29H683.17a32,32,0,0,0-31.88,29.53l-.57,7.2Z"/><path class="cls-37" d="M635.29,110.29,595.25,76l-.21-.19c-5.22-4.8-8-5.64-18.71-7.32-15.93-1.22-33.14-2.13-51-2.7a4.91,4.91,0,0,0-5,4.9V203.5a7.53,7.53,0,0,0,7.53,7.53H635.31a7.53,7.53,0,0,0,7.53-7.53V126.71A21.64,21.64,0,0,0,635.29,110.29Zm-1.77,13.5-104.83-2.33a3.27,3.27,0,0,1-3.2-3.28V73.39a2.28,2.28,0,0,1,2.36-2.3c16.88.57,33,1.43,47.88,2.57,10,1.59,11.69,2.22,15.77,6l.21.2,40.17,34.43a16.52,16.52,0,0,1,4.25,5.64A2.78,2.78,0,0,1,633.52,123.79Z"/><path class="cls-37" d="M509.39,65.35c-9.53-.19-19.21-.3-28.94-.3-16.38,0-25.21-.52-42.56.3-18.37.86-36,61.92-36,61.92v28.44a14.37,14.37,0,0,0,14.38,14.36h6.37a39.83,39.83,0,0,1,39.64,36.09l0,.4a4.94,4.94,0,0,0,4.91,4.47h42.44a5.39,5.39,0,0,0,5.38-5.38V71.12A5.75,5.75,0,0,0,509.39,65.35Zm.38,52.76A2.83,2.83,0,0,1,507.1,121h-.5l-2.25,0-5.44-.12h-1l-3.16-.09-15.81-.34-.54,0-7.15-.16L413.9,118.9a2.86,2.86,0,0,1-2.63-3.82c7-19.84,16.25-38.24,23.52-43.2a6.46,6.46,0,0,1,3.35-1.31c6.61-.3,12.43-.45,18.88-.45,3.42,0,6.75,0,10.28.08,4,0,8.22.1,13.15.1l10.06,0c6.24.05,9.95.19,16.2.26,2.45,0,3.06.84,3.06,3.35Z"/><path d="M381.49,118.27l-38.27-.88a3.09,3.09,0,0,1-2.59-4.65c5.77-9.82,12.29-21.26,18.08-30.19,7.06-10.91,13-13.75,43.22-13.74a3.08,3.08,0,0,1,2.81,4.37c-5.52,12-14.72,30.11-20.35,43.23A3.08,3.08,0,0,1,381.49,118.27Z"/><path d="M357.63,226.74h98.68l-1.15-12.08-.73-7.77a32,32,0,0,0-31.83-29H391a32,32,0,0,0-31.89,29.53l-.55,7.2Z"/><path class="cls-4" d="M528.41,135.16l18,.5a1.43,1.43,0,0,0,1.46-1.43v-3.5a1.42,1.42,0,0,0-1.38-1.42l-18-.5a1.42,1.42,0,0,0-1.46,1.42v3.51A1.42,1.42,0,0,0,528.41,135.16Z"/><path class="cls-4" d="M414.79,132.44l18,.5a1.43,1.43,0,0,0,1.47-1.43V128a1.43,1.43,0,0,0-1.39-1.42l-18-.5a1.42,1.42,0,0,0-1.46,1.42V131A1.42,1.42,0,0,0,414.79,132.44Z"/><path class="cls-28" d="M787.12,203.28l-1.45,7.12-.29,1.36-.3,1.56c-.1.46-.21.9-.35,1.34a15.05,15.05,0,0,1-12.54,10.67l-10.74,1.4H350.21l-26-10.91a21.76,21.76,0,0,1-2.67-1.16,25,25,0,0,1-12.89-16.56l1-12.31a23.48,23.48,0,0,1-.55-6.46,22.35,22.35,0,0,1,.53-4.14l.59-2.55c5.59,3.44,7-9.37,9-19.8Z"/><g class="cls-38"><path class="cls-9" d="M661.16,214.36c0,.75.07,1.49.15,2.24l-2,.18s-.73.58-1.49,1.24l-.15.11-.25.23c.16,1.25.37,2.47.64,3.68a6,6,0,0,0,.13.64l.34-.35.8-.82L662,221c.15.73.33,1.46.51,2.18l-1.65.45-.3.08-.46.51c-.22.25-.51.59-.79,1a1,1,0,0,0-.14.16l-.2.24a43.36,43.36,0,0,0,1.52,4.14l.29-.44.6-.91,2.53-1c.28.7.59,1.39.91,2.06l-1.81.85s-.5.78-1,1.66l-.13.2a1.58,1.58,0,0,1-.13.26,40.89,40.89,0,0,0,2.21,3.8c.07-.17.14-.32.2-.48s.09-.19.12-.27c.21-.43.34-.72.34-.72l2.32-1.44c.39.63.8,1.26,1.23,1.87l-1.61,1.15s-.36.86-.71,1.82c0,.07,0,.14-.07.2a2.22,2.22,0,0,1-.11.3c.9,1.16,1.83,2.28,2.83,3.35q.07-.27.12-.51l.29-1.07,2-1.82c.5.56,1,1.11,1.54,1.63l-1.4,1.42s-.2.93-.37,1.93a1.25,1.25,0,0,0,0,.19c0,.11,0,.22,0,.32a39.81,39.81,0,0,0,3.37,2.81c0-.18,0-.35,0-.51,0-.65.1-1.11.1-1.11l1.66-2.13c.59.46,1.2.9,1.81,1.33L676.38,246s0,.94,0,1.95v.19c0,.11,0,.23,0,.34a40,40,0,0,0,3.82,2.18c0-.18,0-.35-.06-.5-.07-.67-.12-1.13-.12-1.13l1.28-2.39c.66.35,1.32.68,2,1l-.85,1.85s0,.27.09.66.15.79.23,1.24a1.42,1.42,0,0,0,0,.2,1.45,1.45,0,0,0,.06.3,39.06,39.06,0,0,0,4.13,1.5c0-.18-.1-.34-.15-.51-.19-.6-.31-1-.31-1l.85-2.61c.71.24,1.42.44,2.15.64l-.5,1.94s.28.88.62,1.84l.08.23a1,1,0,0,1,.1.26,41.82,41.82,0,0,0,4.34.74,4.83,4.83,0,0,1-.23-.45c-.28-.57-.48-1-.48-1l.38-2.7c.74.1,1.49.19,2.23.25l-.16,2s.44.83,1,1.72a1.4,1.4,0,0,1,.09.17c0,.09.12.19.17.27l1,.05c1.12,0,2.25,0,3.36-.06q-.16-.21-.3-.42l-.66-.91-.08-2.69c.75,0,1.49-.07,2.24-.15l.18,2s.58.73,1.24,1.49a1.53,1.53,0,0,0,.11.16,2.73,2.73,0,0,1,.23.25,43.83,43.83,0,0,0,4.32-.78l-.37-.35c-.47-.45-.8-.79-.8-.79l-.56-2.65c.73-.16,1.46-.33,2.18-.52l.53,1.95.51.46c.25.23.59.52,1,.8l.16.14.24.19a40.81,40.81,0,0,0,4.14-1.52l-.44-.28-.91-.61-1-2.53c.7-.28,1.39-.59,2.06-.91l.85,1.81s.78.51,1.66,1l.2.12.26.13a40.89,40.89,0,0,0,3.8-2.21l-.48-.2-.27-.11c-.43-.22-.72-.34-.72-.34l-1.45-2.33c.64-.39,1.27-.79,1.88-1.23l1.15,1.62s.86.36,1.82.71l.2.07.29.1c.73-.55,1.43-1.13,2.12-1.73.42-.35.83-.72,1.24-1.1l-.52-.12-1.06-.28-1.82-2c.56-.51,1.11-1,1.63-1.55l1.42,1.4s.93.2,1.93.38l.19,0,.32.05a41.45,41.45,0,0,0,2.81-3.37l-.52,0c-.64,0-1.1-.09-1.1-.09l-2.13-1.67c.46-.58.9-1.19,1.33-1.81l1.65,1.15s.94,0,2,0h.53a38.67,38.67,0,0,0,2.18-3.81l-.5.06-1.13.11L732.79,231c.35-.65.68-1.32,1-2l1.84.84.67-.09,1.24-.23.2,0,.3-.06a38.44,38.44,0,0,0,1.5-4.14l-.51.15-1,.32-2.61-.85c.24-.71.44-1.43.64-2.15l1.93.49s.89-.27,1.85-.62l.23-.07a1.17,1.17,0,0,1,.26-.1,41.56,41.56,0,0,0,.74-4.35l-.45.24c-.57.28-1,.47-1,.47l-2.7-.38c.1-.74.19-1.48.25-2.22l2,.15s.83-.44,1.72-1l.17-.09.27-.17c0-.34,0-.67.05-1,0-1.13,0-2.25-.06-3.36l-.42.3-.91.65-2.69.08c0-.74-.08-1.49-.15-2.23l2-.18s.73-.58,1.49-1.24l.16-.12a2.4,2.4,0,0,1,.24-.22,41.24,41.24,0,0,0-.77-4.33l-.35.37c-.45.48-.79.81-.79.81l-2.65.56c-.16-.74-.33-1.46-.52-2.18l2-.54.46-.5c.22-.25.52-.6.8-1l.14-.16c.07-.07.12-.15.19-.23-.44-1.42-1-2.79-1.52-4.14-.1.15-.2.3-.28.44-.35.53-.61.9-.61.9l-2.53,1c-.28-.7-.59-1.38-.91-2.05l1.81-.85s.51-.79,1-1.67l.12-.2.13-.25a41.06,41.06,0,0,0-2.21-3.81c-.07.18-.14.32-.2.48s-.08.19-.11.27c-.22.43-.34.72-.34.72L731.51,193c-.39-.63-.79-1.27-1.23-1.87l1.62-1.15s.36-.86.7-1.83l.08-.2c0-.09.06-.19.1-.28a43.33,43.33,0,0,0-2.83-3.36l0,.17c0,.14-.06.25-.08.34-.16.62-.28,1.06-.28,1.06l-2,1.82c-.51-.55-1-1.11-1.55-1.62l1.4-1.43s.2-.93.38-1.93a1.13,1.13,0,0,1,0-.18c0-.11,0-.22.05-.33a43.11,43.11,0,0,0-3.37-2.8c0,.17,0,.35,0,.51,0,.65-.09,1.11-.09,1.11l-1.67,2.12c-.58-.46-1.2-.89-1.81-1.33l1.15-1.65s0-.93,0-1.95V178c0-.11,0-.21,0-.34a43.18,43.18,0,0,0-3.81-2.18c0,.18,0,.36,0,.51.08.66.12,1.12.12,1.12l-1.28,2.4c-.65-.36-1.32-.69-2-1l.84-1.85s0-.27-.09-.67-.14-.78-.23-1.23l0-.21c0-.09,0-.2-.06-.3a38.39,38.39,0,0,0-4.14-1.49l.15.5c.19.6.32,1,.32,1l-.85,2.6c-.71-.23-1.43-.44-2.15-.63l.49-1.94s-.28-.89-.62-1.84c0-.09,0-.15-.07-.24a1.56,1.56,0,0,1-.11-.26,43.65,43.65,0,0,0-4.34-.74l.24.45c.28.58.47,1,.47,1l-.38,2.7q-1.11-.15-2.22-.24l.15-2s-.44-.82-1-1.72a1.29,1.29,0,0,0-.09-.16,1.78,1.78,0,0,0-.17-.27q-.49,0-1-.06c-1.13,0-2.25,0-3.36.07.1.14.21.27.3.41l.65.91.08,2.7c-.74,0-1.49.07-2.23.15l-.18-2s-.58-.73-1.24-1.49l-.12-.15a2.46,2.46,0,0,1-.22-.25,41.24,41.24,0,0,0-4.33.77l.37.35.81.79.56,2.66c-.74.16-1.46.33-2.18.51l-.54-1.95-.5-.46c-.25-.22-.6-.51-1-.79A.7.7,0,0,0,687,173l-.23-.2c-1.42.44-2.8.95-4.15,1.52l.44.29.91.6,1,2.53c-.7.28-1.38.59-2,.91l-.85-1.81s-.79-.5-1.67-1l-.2-.13-.25-.13a43.44,43.44,0,0,0-3.81,2.21l.48.2.27.12.72.34,1.45,2.32c-.63.4-1.27.8-1.87,1.23l-1.15-1.61s-.86-.36-1.83-.71l-.2-.07-.28-.1a36.31,36.31,0,0,0-3,2.52,3,3,0,0,0-.33.3l.5.12,1.06.29,1.82,2c-.55.5-1.11,1-1.62,1.54l-1.43-1.4s-.93-.2-1.93-.37a1.08,1.08,0,0,0-.19,0l-.32-.05a39.7,39.7,0,0,0-2.8,3.37l.51,0,1.11.1,2.12,1.66c-.46.59-.89,1.2-1.33,1.81l-1.65-1.15s-.93,0-2,0h-.53a42.3,42.3,0,0,0-2.18,3.82l.51-.06,1.12-.12,2.4,1.28c-.36.66-.69,1.33-1,2l-1.85-.85-.67.09-1.23.23-.21,0-.3.06a39,39,0,0,0-1.49,4.13l.5-.15c.6-.19,1-.31,1-.31l2.6.85c-.23.71-.44,1.42-.63,2.15l-1.94-.5s-.89.28-1.84.62l-.24.08a1,1,0,0,1-.26.1,41.82,41.82,0,0,0-.74,4.34l.45-.23,1-.48,2.7.38c-.1.74-.18,1.49-.24,2.23l-2-.16s-.82.44-1.72,1l-.16.09c-.1,0-.19.12-.28.17,0,.34,0,.68,0,1,0,1.12,0,2.25.07,3.36.14-.11.27-.21.41-.3l.91-.66Z"/><path d="M730.28,191.09c.44.6.84,1.24,1.23,1.87l2.33-1.45s.12-.29.34-.72c0-.08.07-.19.11-.27-.53-.82-1.09-1.62-1.69-2.41-.34,1-.7,1.83-.7,1.83Z"/><path d="M665.82,212.26a33.39,33.39,0,1,1,32.56,34.2A33.44,33.44,0,0,1,665.82,212.26Z"/><path d="M662.13,212.16a37.09,37.09,0,1,1,36.15,38A37.12,37.12,0,0,1,662.13,212.16Zm.42,0a36.66,36.66,0,1,0,37.56-35.75A36.71,36.71,0,0,0,662.55,212.18Z"/><path d="M724.62,241.41l1.82,2,1.06.28q1.1-1,2.1-2.07c-1-.18-1.93-.38-1.93-.38l-1.42-1.4C725.73,240.39,725.18,240.9,724.62,241.41Z"/><path d="M729.17,236.56l2.13,1.67s.46.05,1.1.09c.59-.78,1.17-1.57,1.7-2.39-1,0-2,0-2,0l-1.65-1.15C730.07,235.37,729.63,236,729.17,236.56Z"/><path d="M713.41,248.41c.7-.28,1.38-.59,2.05-.91l.86,1.81s.79.5,1.67,1c-.87.44-1.75.84-2.65,1.22l-.91-.61Z"/><path d="M720.77,247.71l-1.45-2.31c.64-.4,1.27-.81,1.88-1.24l1.15,1.62s.86.36,1.82.7c-.78.59-1.58,1.16-2.41,1.69l-.27-.12Z"/><path d="M732.79,231l2.39,1.28,1.13-.11c.44-.86.84-1.75,1.23-2.65l-1.24.23-.67.09-1.84-.84C733.47,229.68,733.14,230.35,732.79,231Z"/><path d="M737.1,209.57c.07.74.12,1.49.15,2.23l2.69-.08.91-.65c0-1-.11-2-.24-2.92-.76.66-1.49,1.24-1.49,1.24Z"/><path d="M707.06,250.33c.74-.15,1.47-.33,2.18-.52l.54,1.95.5.46c.26.23.6.51,1,.8-.92.28-1.86.53-2.81.75l-.81-.79Z"/><path d="M735.39,224.91l2.61.85,1-.32c.3-.92.56-1.85.78-2.81-1,.35-1.85.62-1.85.62l-1.93-.49C735.83,223.48,735.63,224.2,735.39,224.91Z"/><path d="M735.93,203c.19.72.36,1.44.52,2.18l2.65-.56s.34-.33.79-.81c-.22-.95-.46-1.88-.75-2.81-.28.36-.58.71-.8,1l-.46.5Z"/><path d="M733.62,196.82c.32.67.63,1.35.91,2.05l2.53-1s.26-.37.61-.9c-.39-.89-.78-1.78-1.22-2.65-.51.88-1,1.67-1,1.67Z"/><path d="M736.89,218.44l2.7.38s.43-.19,1-.47c.12-1,.2-1.95.25-2.94-.89.52-1.72,1-1.72,1l-2-.15C737.08,217,737,217.7,736.89,218.44Z"/><path d="M664.57,234.65l2.32-1.44c.4.63.8,1.26,1.24,1.87l-1.63,1.15s-.35.86-.7,1.82q-.88-1.17-1.68-2.4c0-.09.08-.2.11-.28C664.44,234.94,664.57,234.65,664.57,234.65Z"/><path d="M663.88,227.29c.28.7.58,1.38.9,2.06l-1.81.85s-.5.79-1,1.67c-.43-.87-.83-1.75-1.21-2.65.34-.53.6-.91.6-.91Z"/><path d="M700.48,251.13c.75,0,1.49-.08,2.24-.15l.18,2s.58.74,1.24,1.51c-1,.11-1.94.19-2.93.24l-.65-.92Z"/><path d="M670.88,238.51c.5.55,1,1.1,1.55,1.62L671,241.56s-.2.92-.37,1.92c-.72-.67-1.41-1.37-2.07-2.09.15-.62.28-1.07.28-1.07Z"/><path d="M658.46,214.45l2.7-.09c0,.75.07,1.49.14,2.24l-2,.18s-.73.58-1.51,1.24c-.11-1-.18-1.94-.23-2.93Z"/><path d="M662,220.94c.15.74.32,1.47.52,2.19l-2,.53-.47.5c-.23.26-.51.61-.8,1-.27-.92-.53-1.86-.74-2.81l.78-.81Z"/><path d="M687.38,249.27c.71.23,1.43.44,2.15.63l-.5,1.94s.28.89.62,1.85c-.95-.22-1.89-.48-2.81-.77l-.31-1Z"/><path d="M693.85,250.77c.73.1,1.48.19,2.23.25l-.17,2s.44.83,1,1.72c-1-.06-2-.13-2.93-.25-.29-.57-.47-1-.47-1Z"/><path d="M681.28,246.67c.66.35,1.33.69,2,1l-.85,1.84s0,.27.09.67.14.79.23,1.24c-.9-.39-1.78-.79-2.64-1.24-.08-.65-.12-1.12-.12-1.12Z"/><path d="M675.72,243.05c.59.46,1.19.9,1.81,1.33L676.38,246s0,.93,0,1.94c-.82-.53-1.62-1.1-2.39-1.69,0-.65.08-1.12.08-1.12Z"/><path d="M674.23,179.68c1,.35,1.83.71,1.83.71l1.15,1.61c.6-.43,1.24-.83,1.87-1.23l-1.45-2.32-.72-.34-.27-.12C675.82,178.53,675,179.09,674.23,179.68Z"/><path d="M702.49,173.16l-.15,2q1.11.09,2.22.24l.38-2.7s-.19-.42-.47-1c-1-.11-2-.19-2.94-.25C702.05,172.34,702.49,173.16,702.49,173.16Z"/><path d="M715.12,178.5c.68.31,1.35.64,2,1l1.28-2.4s0-.46-.12-1.12q-1.29-.66-2.64-1.23c.09.45.17.89.23,1.23s.09.67.09.67Z"/><path d="M709.37,174.32l-.49,1.94c.72.19,1.44.4,2.15.63l.85-2.6s-.13-.44-.32-1c-.92-.29-1.85-.56-2.81-.77C709.09,173.43,709.37,174.32,709.37,174.32Z"/><path d="M687.16,173.15c.36.28.71.57,1,.79l.5.46.54,1.95c.72-.18,1.44-.35,2.18-.51l-.56-2.66-.81-.79C689,172.61,688.09,172.86,687.16,173.15Z"/><path d="M669.23,189.6c-.46.59-.89,1.19-1.32,1.81l-1.66-1.15s-.94,0-2,0c.54-.82,1.11-1.62,1.7-2.39.65,0,1.11.09,1.11.09Z"/><path d="M663,201.26q-.35,1.06-.63,2.16l-1.94-.51s-.89.28-1.85.62c.22-.95.49-1.89.78-2.81l1-.3Z"/><path d="M694.27,171.67c.66.76,1.24,1.49,1.24,1.49l.18,2c.74-.08,1.49-.13,2.23-.15l-.08-2.7-.65-.91C696.21,171.48,695.23,171.55,694.27,171.67Z"/><path d="M680.42,175.84c.88.51,1.67,1,1.67,1l.85,1.81c.67-.32,1.35-.63,2-.91l-1-2.53-.91-.6C682.18,175,681.28,175.4,680.42,175.84Z"/><path d="M665.62,195.16c-.36.66-.69,1.33-1,2l-1.84-.85-.67.09-1.23.23q.57-1.35,1.23-2.64l1.12-.12Z"/><path d="M661.52,207.73c-.11.73-.19,1.48-.26,2.23l-2-.17s-.83.44-1.71,1c0-1,.13-2,.25-2.93.57-.29,1-.47,1-.47Z"/><path d="M720.87,181.78c.61.44,1.23.87,1.81,1.33l1.67-2.12s0-.46.09-1.11c-.78-.59-1.57-1.16-2.4-1.7,0,1,0,1.95,0,1.95Z"/><path d="M673.78,184.76c-.56.5-1.1,1-1.63,1.55l-1.42-1.41s-.92-.2-1.93-.37c.68-.72,1.37-1.41,2.1-2.07.62.15,1.06.28,1.06.28Z"/><path d="M726,186c.53.51,1,1.07,1.55,1.62l2-1.82s.12-.44.28-1.06c-.67-.72-1.36-1.43-2.07-2.1-.18,1-.38,1.93-.38,1.93Z"/><path class="cls-31" d="M726,186c.53.51,1,1.07,1.55,1.62l2-1.82s.12-.44.28-1.06c-.67-.72-1.36-1.43-2.07-2.1-.18,1-.38,1.93-.38,1.93Z"/><g class="cls-39"><path class="cls-40" d="M658.5,222.33l-.34.36c0-.21-.09-.43-.13-.64Z"/></g><path class="cls-12" d="M667.76,213.08a31.45,31.45,0,1,0,31.44-31.44A31.44,31.44,0,0,0,667.76,213.08Z"/><path d="M673.26,213.08a25.94,25.94,0,1,0,25.94-25.94A25.94,25.94,0,0,0,673.26,213.08Z"/><polygon class="cls-4" points="697.8 217.29 700.6 208.68 673.68 201.6 671.86 207.2 697.8 217.29"/><polygon class="cls-4" points="702.86 215.65 695.54 210.33 680.49 233.74 685.25 237.2 702.86 215.65"/><polygon class="cls-4" points="702.86 210.33 695.54 215.65 713.15 237.2 717.92 233.74 702.86 210.33"/><polygon class="cls-4" points="697.8 208.68 700.6 217.29 726.54 207.2 724.72 201.6 697.8 208.68"/><polygon class="cls-4" points="694.68 212.99 703.73 212.99 702.15 185.2 696.26 185.2 694.68 212.99"/><circle class="cls-10" cx="699.2" cy="213.08" r="9.49" transform="translate(-30.29 166.93) rotate(-13.33)"/></g><g class="cls-41"><path class="cls-9" d="M369,214.36c0,.75.07,1.49.15,2.24l-2,.18s-.74.58-1.5,1.24l-.15.11a2.73,2.73,0,0,1-.25.23c.16,1.25.37,2.47.64,3.68,0,.22.09.44.14.64l.33-.35c.47-.49.81-.82.81-.82l2.65-.56c.16.73.33,1.46.51,2.18l-1.65.45-.29.08s-.19.2-.46.51-.52.59-.8,1a1,1,0,0,0-.14.16l-.19.24a38.53,38.53,0,0,0,1.52,4.14l.28-.44.6-.91,2.53-1c.29.7.59,1.39.92,2.06l-1.81.85s-.51.78-1,1.66a1.37,1.37,0,0,1-.13.2c0,.1-.08.18-.12.26a43.18,43.18,0,0,0,2.2,3.8,3.78,3.78,0,0,0,.2-.48,1.59,1.59,0,0,0,.12-.27c.21-.43.34-.72.34-.72l2.33-1.44c.39.63.79,1.26,1.22,1.87l-1.61,1.15s-.36.86-.71,1.82c0,.07,0,.14-.07.2s-.06.19-.1.3a42.84,42.84,0,0,0,2.83,3.35c0-.18.09-.35.12-.51l.28-1.07,2-1.82c.5.56,1,1.11,1.55,1.63l-1.41,1.42s-.2.93-.37,1.93l0,.19c0,.11,0,.22-.05.32a41.45,41.45,0,0,0,3.37,2.81q0-.27,0-.51c0-.65.09-1.11.09-1.11l1.67-2.13c.58.46,1.19.9,1.81,1.33L384.21,246s0,.94,0,1.95v.19a1.93,1.93,0,0,1,0,.34,40,40,0,0,0,3.82,2.18c0-.18,0-.35-.05-.5-.08-.67-.12-1.13-.12-1.13l1.27-2.39c.66.35,1.33.68,2,1l-.84,1.85s0,.27.09.66l.22,1.24a1.42,1.42,0,0,1,0,.2,2.65,2.65,0,0,0,.06.3,39.06,39.06,0,0,0,4.13,1.5l-.15-.51-.31-1,.85-2.61c.71.24,1.43.44,2.15.64l-.49,1.94s.27.88.61,1.84a2.09,2.09,0,0,1,.08.23,1,1,0,0,1,.1.26,41.82,41.82,0,0,0,4.34.74c-.09-.16-.16-.31-.23-.45-.28-.57-.47-1-.47-1l.37-2.7c.75.1,1.49.19,2.23.25l-.16,2s.44.83,1,1.72a1.4,1.4,0,0,1,.09.17l.17.27,1,.05c1.13,0,2.25,0,3.36-.06-.1-.14-.21-.28-.3-.42-.38-.52-.65-.91-.65-.91l-.09-2.69c.75,0,1.5-.07,2.24-.15l.18,2s.58.73,1.24,1.49l.12.16a2.62,2.62,0,0,1,.22.25c1.47-.19,2.91-.45,4.33-.78a4.19,4.19,0,0,1-.37-.35c-.48-.45-.81-.79-.81-.79l-.56-2.65c.74-.16,1.46-.33,2.18-.52l.54,1.95.5.46c.25.23.6.52.95.8l.16.14.24.19a40.81,40.81,0,0,0,4.14-1.52l-.44-.28-.9-.61-1-2.53c.69-.28,1.38-.59,2.05-.91l.85,1.81s.79.51,1.67,1l.2.12.25.13a41.06,41.06,0,0,0,3.81-2.21l-.49-.2-.26-.11c-.43-.22-.73-.34-.73-.34l-1.44-2.33c.63-.39,1.26-.79,1.87-1.23l1.15,1.62s.86.36,1.83.71l.2.07.28.1c.73-.55,1.44-1.13,2.13-1.73.41-.35.83-.72,1.23-1.1l-.51-.12-1.07-.28-1.81-2c.55-.51,1.1-1,1.62-1.55l1.43,1.4s.93.2,1.92.38a1.08,1.08,0,0,1,.19,0l.33.05a43.49,43.49,0,0,0,2.8-3.37l-.51,0c-.65,0-1.11-.09-1.11-.09L437,236.56c.47-.58.9-1.19,1.34-1.81L440,235.9s.93,0,1.95,0h.52a38.67,38.67,0,0,0,2.18-3.81l-.5.06-1.13.11L440.62,231c.36-.65.69-1.32,1-2l1.85.84.66-.09,1.24-.23.21,0,.3-.06a40.66,40.66,0,0,0,1.49-4.14l-.5.15-1,.32-2.61-.85c.24-.71.45-1.43.64-2.15l1.94.49s.88-.27,1.84-.62l.23-.07a1.39,1.39,0,0,1,.26-.1,41.58,41.58,0,0,0,.75-4.35l-.46.24c-.57.28-1,.47-1,.47l-2.69-.38c.09-.74.18-1.48.24-2.22l2,.15s.82-.44,1.71-1a1.4,1.4,0,0,0,.17-.09l.27-.17c0-.34.05-.67.06-1,0-1.13,0-2.25-.07-3.36l-.41.3-.91.65-2.7.08c0-.74-.07-1.49-.15-2.23l2-.18s.74-.58,1.5-1.24l.15-.12a2.46,2.46,0,0,1,.25-.22,38.82,38.82,0,0,0-.78-4.33l-.34.37-.79.81-2.66.56c-.16-.74-.33-1.46-.51-2.18l2-.54.45-.5c.23-.25.52-.6.8-1a.7.7,0,0,0,.14-.16c.07-.07.13-.15.2-.23a41.76,41.76,0,0,0-1.53-4.14l-.28.44-.6.9-2.53,1c-.29-.7-.59-1.38-.91-2.05l1.8-.85s.51-.79,1-1.67l.13-.2.12-.25a43.35,43.35,0,0,0-2.2-3.81,4.5,4.5,0,0,0-.2.48,1.59,1.59,0,0,0-.12.27c-.21.43-.34.72-.34.72L439.34,193c-.39-.63-.79-1.27-1.22-1.87l1.61-1.15s.36-.86.71-1.83c0-.07,0-.13.07-.2s.06-.19.1-.28a41.21,41.21,0,0,0-2.83-3.36l0,.17c0,.14-.06.25-.08.34-.16.62-.28,1.06-.28,1.06l-2,1.82c-.5-.55-1-1.11-1.55-1.62l1.41-1.43s.2-.93.37-1.93l0-.18c0-.11,0-.22.05-.33a41.34,41.34,0,0,0-3.37-2.8c0,.17,0,.35,0,.51,0,.65-.09,1.11-.09,1.11l-1.67,2.12c-.58-.46-1.19-.89-1.8-1.33l1.15-1.65s0-.93,0-1.95V178a1.93,1.93,0,0,1,0-.34c-1.23-.78-2.51-1.52-3.82-2.18,0,.18,0,.36.05.51.08.66.12,1.12.12,1.12L425,179.5c-.66-.36-1.33-.69-2-1l.85-1.85-.1-.67-.22-1.23a1.55,1.55,0,0,1,0-.21c0-.09,0-.2-.06-.3a39,39,0,0,0-4.13-1.49l.15.5.31,1-.85,2.6c-.71-.23-1.43-.44-2.15-.63l.49-1.94s-.27-.89-.61-1.84l-.08-.24a1,1,0,0,1-.1-.26c-1.43-.31-2.87-.57-4.34-.74l.23.45c.28.58.47,1,.47,1l-.37,2.7c-.74-.1-1.49-.18-2.23-.24l.16-2s-.44-.82-1-1.72a1.29,1.29,0,0,1-.09-.16l-.17-.27c-.34,0-.68,0-1-.06-1.13,0-2.25,0-3.36.07.1.14.21.27.3.41l.65.91.09,2.7c-.75,0-1.5.07-2.24.15l-.18-2s-.58-.73-1.24-1.49c0,0-.08-.09-.12-.15s-.15-.17-.22-.25a40.6,40.6,0,0,0-4.32.77l.36.35.81.79.56,2.66c-.74.16-1.46.33-2.18.51l-.53-1.95-.51-.46c-.25-.22-.59-.51-.95-.79l-.16-.14-.24-.2a43.36,43.36,0,0,0-4.14,1.52l.44.29.9.6,1,2.53c-.69.28-1.38.59-2.05.91l-.85-1.81s-.78-.5-1.67-1l-.2-.13-.25-.13a43.44,43.44,0,0,0-3.81,2.21l.49.2.26.12.73.34,1.44,2.32c-.63.4-1.26.8-1.87,1.23l-1.15-1.61s-.86-.36-1.82-.71l-.21-.07-.28-.1a34.61,34.61,0,0,0-3,2.52,4.31,4.31,0,0,0-.34.3l.5.12,1.07.29,1.81,2c-.55.5-1.1,1-1.62,1.54l-1.43-1.4s-.93-.2-1.92-.37l-.19,0-.33-.05a41.69,41.69,0,0,0-2.8,3.37l.51,0,1.11.1,2.13,1.66c-.47.59-.9,1.2-1.33,1.81l-1.66-1.15s-.93,0-1.95,0h-.52a40,40,0,0,0-2.18,3.82l.5-.06,1.13-.12,2.39,1.28c-.36.66-.68,1.33-1,2l-1.85-.85-.66.09-1.24.23-.2,0a1.45,1.45,0,0,0-.3.06,39.06,39.06,0,0,0-1.5,4.13l.5-.15c.6-.19,1-.31,1-.31l2.61.85c-.24.71-.45,1.42-.64,2.15l-1.94-.5s-.88.28-1.84.62l-.23.08a1.39,1.39,0,0,1-.26.1c-.32,1.43-.57,2.87-.75,4.34l.46-.23,1-.48,2.7.38c-.1.74-.19,1.49-.25,2.23l-2-.16s-.82.44-1.71,1a1.4,1.4,0,0,1-.17.09L365,211c0,.34,0,.68,0,1,0,1.12,0,2.25.06,3.36l.41-.3.91-.66Z"/><path d="M438.12,191.09c.43.6.83,1.24,1.22,1.87l2.33-1.45s.13-.29.34-.72a1.59,1.59,0,0,1,.12-.27c-.54-.82-1.1-1.62-1.69-2.41-.35,1-.71,1.83-.71,1.83Z"/><path d="M373.66,212.26a33.39,33.39,0,1,1,32.55,34.2A33.43,33.43,0,0,1,373.66,212.26Z"/><path d="M370,212.16a37.09,37.09,0,1,1,36.16,38A37.12,37.12,0,0,1,370,212.16Zm.43,0a36.66,36.66,0,1,0,37.55-35.75A36.7,36.7,0,0,0,370.39,212.18Z"/><path d="M432.46,241.41l1.81,2,1.07.28c.72-.67,1.43-1.36,2.09-2.07-1-.18-1.92-.38-1.92-.38l-1.43-1.4C433.56,240.39,433,240.9,432.46,241.41Z"/><path d="M437,236.56l2.13,1.67s.46.05,1.11.09c.59-.78,1.16-1.57,1.7-2.39-1,0-1.95,0-1.95,0l-1.65-1.15C437.9,235.37,437.47,236,437,236.56Z"/><path d="M421.24,248.41c.7-.28,1.38-.59,2.06-.91l.85,1.81s.79.5,1.67,1c-.86.44-1.75.84-2.65,1.22l-.9-.61Z"/><path d="M428.6,247.71l-1.44-2.31c.63-.4,1.26-.81,1.87-1.24l1.15,1.62s.87.36,1.83.7c-.79.59-1.59,1.16-2.41,1.69l-.27-.12Z"/><path d="M440.62,231l2.39,1.28,1.13-.11c.44-.86.84-1.75,1.23-2.65l-1.24.23-.66.09-1.85-.84C441.31,229.68,441,230.35,440.62,231Z"/><path d="M444.93,209.57c.08.74.13,1.49.15,2.23l2.7-.08.91-.65c-.05-1-.12-2-.24-2.92-.76.66-1.5,1.24-1.5,1.24Z"/><path d="M414.9,250.33c.73-.15,1.46-.33,2.18-.52l.53,1.95.51.46c.26.23.6.51.95.8-.92.28-1.86.53-2.81.75l-.81-.79Z"/><path d="M443.22,224.91l2.61.85,1-.32c.29-.92.56-1.85.77-2.81-1,.35-1.84.62-1.84.62l-1.94-.49C443.67,223.48,443.46,224.2,443.22,224.91Z"/><path d="M443.77,203c.18.72.35,1.44.51,2.18l2.66-.56.79-.81c-.22-.95-.47-1.88-.76-2.81-.28.36-.57.71-.8,1l-.45.5Z"/><path d="M441.46,196.82c.32.67.62,1.35.91,2.05l2.53-1,.6-.9c-.38-.89-.78-1.78-1.22-2.65-.51.88-1,1.67-1,1.67Z"/><path d="M444.73,218.44l2.69.38s.43-.19,1-.47c.12-1,.2-1.95.25-2.94-.89.52-1.71,1-1.71,1l-2-.15C444.91,217,444.82,217.7,444.73,218.44Z"/><path d="M372.4,234.65l2.32-1.44c.4.63.81,1.26,1.24,1.87l-1.62,1.15s-.36.86-.71,1.82c-.58-.78-1.15-1.58-1.68-2.4,0-.09.08-.2.11-.28C372.27,234.94,372.4,234.65,372.4,234.65Z"/><path d="M371.71,227.29c.28.7.59,1.38.91,2.06l-1.82.85s-.5.79-1,1.67c-.44-.87-.84-1.75-1.22-2.65l.6-.91Z"/><path d="M408.31,251.13c.75,0,1.5-.08,2.24-.15l.18,2s.58.74,1.24,1.51c-1,.11-1.94.19-2.92.24-.39-.53-.65-.92-.65-.92Z"/><path d="M378.71,238.51c.5.55,1,1.1,1.55,1.62l-1.41,1.43s-.2.92-.37,1.92c-.71-.67-1.4-1.37-2.07-2.09l.28-1.07Z"/><path d="M366.3,214.45l2.69-.09c0,.75.08,1.49.14,2.24l-2,.18s-.73.58-1.5,1.24c-.12-1-.19-1.94-.24-2.93C365.91,214.71,366.3,214.45,366.3,214.45Z"/><path d="M369.79,220.94c.15.74.32,1.47.52,2.19l-1.95.53-.46.5c-.23.26-.51.61-.8,1-.28-.92-.54-1.86-.75-2.81l.78-.81Z"/><path d="M395.21,249.27q1.07.34,2.16.63l-.51,1.94s.28.89.62,1.85c-1-.22-1.88-.48-2.81-.77-.18-.61-.3-1-.3-1Z"/><path d="M401.68,250.77c.74.1,1.48.19,2.23.25l-.16,2s.44.83.95,1.72c-1-.06-2-.13-2.93-.25-.28-.57-.47-1-.47-1Z"/><path d="M389.11,246.67c.66.35,1.33.69,2,1l-.85,1.84.1.67.22,1.24c-.9-.39-1.78-.79-2.64-1.24-.07-.65-.11-1.12-.11-1.12Z"/><path d="M383.55,243.05c.59.46,1.2.9,1.81,1.33L384.21,246s0,.93,0,1.94c-.82-.53-1.61-1.1-2.39-1.69,0-.65.09-1.12.09-1.12Z"/><path d="M382.07,179.68c1,.35,1.82.71,1.82.71L385,182c.61-.43,1.24-.83,1.87-1.23l-1.44-2.32-.73-.34-.26-.12C383.65,178.53,382.85,179.09,382.07,179.68Z"/><path d="M410.33,173.16l-.16,2c.74.06,1.49.14,2.23.24l.37-2.7s-.19-.42-.47-1c-1-.11-1.95-.19-2.93-.25C409.89,172.34,410.33,173.16,410.33,173.16Z"/><path d="M423,178.5c.68.31,1.35.64,2,1l1.27-2.4s0-.46-.12-1.12c-.85-.44-1.74-.85-2.63-1.23l.22,1.23.1.67Z"/><path d="M417.2,174.32l-.49,1.94c.72.19,1.44.4,2.15.63l.85-2.6-.31-1c-.93-.29-1.86-.56-2.81-.77C416.93,173.43,417.2,174.32,417.2,174.32Z"/><path d="M395,173.15c.36.28.7.57.95.79l.51.46.53,1.95c.72-.18,1.44-.35,2.18-.51l-.56-2.66-.81-.79C396.85,172.61,395.92,172.86,395,173.15Z"/><path d="M377.07,189.6c-.46.59-.9,1.19-1.33,1.81l-1.66-1.15s-.93,0-1.94,0c.53-.82,1.1-1.62,1.69-2.39.65,0,1.12.09,1.12.09Z"/><path d="M370.84,201.26c-.23.71-.43,1.43-.62,2.16l-1.94-.51s-.89.28-1.85.62c.22-.95.48-1.89.77-2.81l1.05-.3Z"/><path d="M402.1,171.67c.66.76,1.24,1.49,1.24,1.49l.18,2c.74-.08,1.49-.13,2.24-.15l-.09-2.7-.65-.91C404,171.48,403.07,171.55,402.1,171.67Z"/><path d="M388.25,175.84c.89.51,1.67,1,1.67,1l.85,1.81c.67-.32,1.36-.63,2.05-.91l-1-2.53-.9-.6C390,175,389.12,175.4,388.25,175.84Z"/><path d="M373.45,195.16c-.35.66-.69,1.33-1,2l-1.85-.85-.67.09-1.23.23c.39-.9.79-1.78,1.24-2.64l1.12-.12Z"/><path d="M369.35,207.73c-.1.73-.19,1.48-.25,2.23l-2-.17s-.83.44-1.72,1c.05-1,.13-2,.25-2.93.57-.29,1-.47,1-.47Z"/><path d="M428.71,181.78c.61.44,1.22.87,1.8,1.33l1.67-2.12s.05-.46.09-1.11c-.78-.59-1.57-1.16-2.39-1.7,0,1,0,1.95,0,1.95Z"/><path d="M381.61,184.76c-.56.5-1.1,1-1.62,1.55l-1.43-1.41s-.92-.2-1.93-.37q1-1.08,2.1-2.07c.62.15,1.07.28,1.07.28Z"/><path d="M433.81,186c.53.51,1.05,1.07,1.55,1.62l2-1.82s.12-.44.28-1.06c-.67-.72-1.36-1.43-2.07-2.1-.17,1-.37,1.93-.37,1.93Z"/><path class="cls-31" d="M433.81,186c.53.51,1.05,1.07,1.55,1.62l2-1.82s.12-.44.28-1.06c-.67-.72-1.36-1.43-2.07-2.1-.17,1-.37,1.93-.37,1.93Z"/><g class="cls-39"><path class="cls-40" d="M366.33,222.33l-.34.36c-.05-.21-.09-.43-.13-.64Z"/></g><path class="cls-12" d="M375.59,213.08A31.45,31.45,0,1,0,407,181.64,31.45,31.45,0,0,0,375.59,213.08Z"/><path d="M381.1,213.08A25.94,25.94,0,1,0,407,187.14,25.94,25.94,0,0,0,381.1,213.08Z"/><polygon class="cls-4" points="405.64 217.29 408.43 208.68 381.52 201.6 379.7 207.2 405.64 217.29"/><polygon class="cls-4" points="410.7 215.65 403.37 210.33 388.32 233.74 393.08 237.2 410.7 215.65"/><polygon class="cls-4" points="410.7 210.33 403.37 215.65 420.99 237.2 425.75 233.74 410.7 210.33"/><polygon class="cls-4" points="405.64 208.68 408.43 217.29 434.38 207.2 432.56 201.6 405.64 208.68"/><polygon class="cls-4" points="402.51 212.99 411.56 212.99 409.98 185.2 404.09 185.2 402.51 212.99"/><circle class="cls-10" cx="407.04" cy="213.08" r="9.49" transform="translate(-39.02 102.99) rotate(-13.77)"/></g><g class="cls-42"><path d="M609.47,106.54l.45,10.47,2.43,1.37c5.93-4.69,9.49-6.09,15.25-9.94l12.82,1-11.23,19H596.42l2.75-7,5.75-.11,2-2.27-.76-9.41Z"/><path d="M592.07,130.69a2.14,2.14,0,0,1-.69-3l15.92-24.9a2.16,2.16,0,0,1,3.64,2.32L595,130A2.13,2.13,0,0,1,592.07,130.69Z"/><path d="M544,130.73H521.39L515,97.44h11.53a13.38,13.38,0,0,1,13.13,10.86Z"/><path d="M452.55,130.73H430l-4.83-25.2a6.81,6.81,0,0,1,6.69-8.09h3.29a13.38,13.38,0,0,1,13.13,10.86Z"/><rect x="334.92" y="106.06" width="99.36" height="21.95"/></g><path class="cls-6" d="M637.26,120.75c.41,7.43-6.94,7.41-12.45,7.7a7.57,7.57,0,0,1-2.08-.18l6.5-26.45C633.7,104.11,636.91,114.27,637.26,120.75Z"/><path d="M231.81,12.64v1.07L243,19.41a13.8,13.8,0,0,0,7.39,1.43l.66,0a12.79,12.79,0,0,1,2.45.1l39,5.1C294,26.63,306.84,22,307,22l-5.74-3.5C277.9,14.59,258.38,13.45,231.81,12.64Z"/><path class="cls-6" d="M372.47,66.56a1.23,1.23,0,0,1-1.15-.82,34.6,34.6,0,0,0-17.51-19.91c-14.63-7-52.61-25.12-55.12-26.17L254.56,13.9a20.1,20.1,0,0,0-3.95-.15,21.94,21.94,0,0,0-6.06,1.11l-.37.06-12.35.14h0a1.21,1.21,0,0,1,0-2.42L244,12.5a24.66,24.66,0,0,1,6.52-1.17,22.16,22.16,0,0,1,4.38.17l.59.07,43.68,5.71c.25,0,.77.1,55.72,26.37A37.12,37.12,0,0,1,373.62,65a1.22,1.22,0,0,1-.76,1.54A1.32,1.32,0,0,1,372.47,66.56Z"/><rect x="426.06" y="25.81" width="3.87" height="22.12"/><rect x="471.51" y="25.81" width="3.87" height="22.12"/><path class="cls-43" d="M481.86,139.13a3.67,3.67,0,0,0-1.84-.65,16,16,0,0,0-4.84.06,5.53,5.53,0,0,0-1-1.9,8.35,8.35,0,0,0,.72-4.53,25.62,25.62,0,0,0,4.07-11.76l-.54,0-7.15-.16a35.65,35.65,0,0,1-.8,9.48,4.76,4.76,0,0,0-.55.55,16.14,16.14,0,0,0-2.63,4.12l0,.12a5.25,5.25,0,0,0-1.15.43,4.55,4.55,0,0,0-4.6-3.37,2,2,0,0,0-1.34-2,2,2,0,0,0-2.5,1.44,2.16,2.16,0,0,0,.48,2.09,5.44,5.44,0,0,0-1.34,2.24,5.61,5.61,0,0,0-.13,2.6,2.09,2.09,0,0,0-1.56,1.46,2,2,0,0,0,1.26,2.58,2,2,0,0,0,2.24-.91,5.22,5.22,0,0,0,1.33.68,4.73,4.73,0,0,0,4.36-.91,6.75,6.75,0,0,0,.71,1,.27.27,0,0,1,0,.12,15.42,15.42,0,0,0-.1,4.89,3.55,3.55,0,0,0,.64,1.85,1.29,1.29,0,0,0,2.39-.73,4.4,4.4,0,0,0-.2-1.34c-.3-1.13-.58-2.24-.88-3.37a6.35,6.35,0,0,0,1.31.55,6.16,6.16,0,0,0,5.76-.95,15.84,15.84,0,0,0,4,2.76,3.42,3.42,0,0,0,1.91.47,1.4,1.4,0,0,0,1.33-1.23,1.43,1.43,0,0,0-.62-1.15,4.45,4.45,0,0,0-1.23-.57c-1.45-.51-2.91-1-4.36-1.5a3,3,0,0,0,.31-.7,3.68,3.68,0,0,0,.13-.75c1.49.41,3,.81,4.45,1.2a4.17,4.17,0,0,0,1.34.21,1.29,1.29,0,0,0,.74-2.39Zm-12.32-4.86s0,0,0,0,0,0,0,0Z"/><path class="cls-44" d="M474,133c3.14.95,5.06,3.79,4.28,6.33s-3.94,3.83-7.08,2.87-5.05-3.79-4.28-6.33S470.87,132,474,133Z"/><path class="cls-45" d="M460.66,136.35a2.11,2.11,0,1,1-2.49,1.43A2,2,0,0,1,460.66,136.35Z"/><path class="cls-46" d="M460.66,136.76a1.53,1.53,0,1,1-1.81,1.05A1.49,1.49,0,0,1,460.66,136.76Z"/><path class="cls-45" d="M462,132a2.1,2.1,0,1,0-1.26-2.58A2,2,0,0,0,462,132Z"/><path class="cls-46" d="M462.22,131.63a1.53,1.53,0,1,0-.91-1.88A1.48,1.48,0,0,0,462.22,131.63Z"/><path class="cls-45" d="M466,130.14a5.23,5.23,0,1,1-6.17,3.58A5.05,5.05,0,0,1,466,130.14Z"/><path class="cls-33" d="M467.28,133.23a2.63,2.63,0,1,1-3.11,1.8A2.54,2.54,0,0,1,467.28,133.23Z"/><path class="cls-46" d="M465.49,134.62a.78.78,0,0,1,.52,1,.78.78,0,1,1-.52-1Z"/><path class="cls-46" d="M463.43,135.09c-.47-.14-.91-.06-1,.19s.25.56.72.7a1.24,1.24,0,0,0,.59.06,4.08,4.08,0,0,1,0-.78A1.2,1.2,0,0,0,463.43,135.09Z"/><path class="cls-46" d="M463.86,133.67c-.47-.14-.91-.06-1,.19s.24.56.71.7a2,2,0,0,0,.4.07,3.29,3.29,0,0,1,.4-.68A1.4,1.4,0,0,0,463.86,133.67Z"/><rect class="cls-46" x="466.06" y="134.68" width="0.27" height="1.94" transform="matrix(0.29, -0.96, 0.96, 0.29, 200.26, 541.86)"/><path class="cls-46" d="M467.25,136a2.48,2.48,0,0,1-.78,1.18.14.14,0,0,1-.19,0,.14.14,0,0,1,0-.2,2.28,2.28,0,0,0,.69-2.37.14.14,0,0,1,.1-.17.13.13,0,0,1,.17.09A2.49,2.49,0,0,1,467.25,136Z"/><path class="cls-44" d="M481,144a3.58,3.58,0,0,0,1.9.47,1.44,1.44,0,0,0,1.34-1.23,1.49,1.49,0,0,0-.63-1.16,4.45,4.45,0,0,0-1.23-.57l-4.89-1.68a1,1,0,0,0-.77,0,.63.63,0,0,0-.22.74,1.87,1.87,0,0,0,.49.67A15.93,15.93,0,0,0,481,144Z"/><path class="cls-44" d="M467.94,145.23a3.53,3.53,0,0,0,.65,1.85,1.28,1.28,0,0,0,2.38-.73,4.11,4.11,0,0,0-.2-1.34c-.43-1.67-.87-3.34-1.3-5a1,1,0,0,0-.39-.67.64.64,0,0,0-.74.23,1.64,1.64,0,0,0-.29.78A15.67,15.67,0,0,0,467.94,145.23Z"/><path class="cls-44" d="M483.11,136.94a3.63,3.63,0,0,1,1.84.66,1.45,1.45,0,0,1,.42,1.77,1.43,1.43,0,0,1-1.16.61,4,4,0,0,1-1.34-.21l-5-1.34a.94.94,0,0,1-.66-.39.64.64,0,0,1,.23-.74,1.79,1.79,0,0,1,.78-.28A15.73,15.73,0,0,1,483.11,136.94Z"/><path class="cls-45" d="M475.07,135.26c1.93.59,3.1,2.33,2.63,3.89s-2.43,2.35-4.35,1.76-3.11-2.32-2.63-3.89S473.14,134.67,475.07,135.26Z"/><path class="cls-24" d="M470.19,110.65c2.56,2.52,3.77,4.09,4.1,7.46a34.51,34.51,0,0,1-.87,10.51c-1.11,1.18-1.23,2.38-1.81,3.4.63.43.74.53,1.19.8.28,2.14-2,3.57-1.2,3.85,3.89,1.47,6.74-.63,6.36-6.1,2.88-4.66,4.79-10.38,3.82-14.78-.73-3.29-3.69-5.2-5.72-8.82Z"/><path class="cls-8" d="M470.07,105c-2.39,0-1.41,3.74,1.31,8.8l2.91,4.3,8.23-2.55C478.59,105.82,473.66,105,470.07,105Z"/><path class="cls-44" d="M473,128.66a3.6,3.6,0,0,1,1.57-1.17,1.45,1.45,0,0,1,1.71.63,1.49,1.49,0,0,1-.13,1.31,4.36,4.36,0,0,1-.92,1l-3.87,3.42a.93.93,0,0,1-.7.33.62.62,0,0,1-.49-.6,1.79,1.79,0,0,1,.2-.8A15.37,15.37,0,0,1,473,128.66Z"/></g></g></g></svg>