<?xml version="1.0"?>
<svg xmlns="http://www.w3.org/2000/svg" xmlns:xlink="http://www.w3.org/1999/xlink" version="1.1" id="Capa_1" x="0px" y="0px" viewBox="0 0 397.2 397.2" style="enable-background:new 0 0 397.2 397.2;" xml:space="preserve" width="512px" height="512px"><g><g>
	<g>
		<path d="M396.8,108.8c0-10-4.4-19.2-10.8-25.6c-6.8-6.8-16-10.8-26.4-10.8H37.2c-10.4,0-19.6,4-26.4,10.8C4,90,0,98.8,0,108.8    c0,0,0,0,0,0.4v0.4v178c0,10,4,18.8,10.4,25.6c0.4,0.4,0.4,0.4,0.8,0.8c6.8,6.8,16,10.8,26.4,10.8H360c10.4,0,19.6-4,26.4-10.8    s10.8-16,10.8-26.4V109.2C396.8,109.2,396.8,109.2,396.8,108.8z M27.6,100c2.4-2.4,5.6-4,9.2-4h322.4c3.6,0,6.8,1.6,9.2,4    c0.8,0.8,1.6,1.6,2,2.8l-172,82.4L25.6,102.8C26.4,101.6,26.8,100.8,27.6,100z M24,128.4l92,44l-92,87.2    C24,259.6,24,128.4,24,128.4z M369.2,297.2c-2.4,2-6,3.6-9.6,3.6H37.2c-3.6,0-6.8-1.6-9.2-4l-0.4-0.4c-1.2-1.2-2-2.8-2.8-4.4    l114.4-108.4l54.4,26c3.2,1.6,7.2,1.6,10.4,0l54.4-26l114,108.4C371.6,294,370.8,295.6,369.2,297.2z M373.2,259.6l-92-87.2l92-44    V259.6z" data-original="#000000" class="active-path" fill="#000000"/>
	</g>
</g></g> </svg>
